<svg xmlns="http://www.w3.org/2000/svg" xmlns:xlink="http://www.w3.org/1999/xlink" width="500" zoomAndPan="magnify" viewBox="0 0 375 374.999991" height="500" preserveAspectRatio="xMidYMid meet" version="1.2"><defs><clipPath id="bad7534c3f"><path d="M 4.6875 4.6875 L 370.6875 4.6875 L 370.6875 370.6875 L 4.6875 370.6875 Z M 4.6875 4.6875 "/></clipPath></defs><g id="962585528d"><g clip-rule="nonzero" clip-path="url(#bad7534c3f)"><path style=" stroke:none;fill-rule:evenodd;fill:#0070f3;fill-opacity:1;" d="M 187.535156 4.6875 C 288.515625 4.6875 370.363281 86.554688 370.363281 187.515625 C 370.363281 288.496094 288.496094 370.347656 187.535156 370.347656 C 86.554688 370.347656 4.703125 288.480469 4.703125 187.515625 C 4.703125 86.535156 86.570312 4.6875 187.535156 4.6875 Z M 201.480469 72.09375 C 218.671875 72.09375 232.597656 86.019531 232.597656 103.210938 C 232.597656 120.402344 218.671875 134.332031 201.480469 134.332031 C 184.289062 134.332031 170.359375 120.402344 170.359375 103.210938 C 170.359375 86.019531 184.289062 72.09375 201.480469 72.09375 Z M 148.6875 151.691406 C 148.6875 151.691406 203.417969 151.691406 213.707031 151.691406 C 224.011719 151.691406 226.914062 160.484375 224.972656 167.253906 C 223.03125 174.019531 204.691406 271.117188 211.128906 282.058594 C 217.570312 292.996094 232.476562 274.863281 237.628906 274.554688 C 242.78125 274.226562 246.644531 278.949219 243.847656 286.453125 C 241.0625 293.957031 224.628906 310.496094 190.09375 310.496094 C 155.539062 310.496094 143.742188 281.75 149.546875 252.125 C 155.332031 222.515625 163.164062 185.816406 163.59375 180.769531 C 164.023438 175.71875 163.335938 169.175781 155.078125 169.226562 C 152.089844 169.246094 149.1875 169.160156 146.695312 168.710938 C 134.761719 166.496094 137.886719 151.367188 148.6875 151.691406 Z M 148.6875 151.691406 "/></g></g></svg>