<svg xmlns="http://www.w3.org/2000/svg" xmlns:xlink="http://www.w3.org/1999/xlink" width="500" zoomAndPan="magnify" viewBox="0 0 375 374.999991" height="500" preserveAspectRatio="xMidYMid meet" version="1.2"><defs><clipPath id="38ded60318"><path d="M 14.378906 14.378906 L 360.878906 14.378906 L 360.878906 360.878906 L 14.378906 360.878906 Z M 14.378906 14.378906 "/></clipPath><clipPath id="c76c6b05fc"><path d="M 360.878906 187.628906 C 360.878906 190.464844 360.808594 193.296875 360.671875 196.128906 C 360.53125 198.960938 360.324219 201.789062 360.042969 204.609375 C 359.765625 207.433594 359.421875 210.246094 359.003906 213.050781 C 358.585938 215.855469 358.101562 218.648438 357.550781 221.429688 C 356.996094 224.210938 356.375 226.976562 355.6875 229.726562 C 355 232.476562 354.242188 235.207031 353.417969 237.921875 C 352.597656 240.632812 351.707031 243.324219 350.75 245.996094 C 349.796875 248.664062 348.777344 251.308594 347.691406 253.929688 C 346.605469 256.546875 345.457031 259.140625 344.246094 261.703125 C 343.03125 264.265625 341.757812 266.796875 340.421875 269.296875 C 339.085938 271.800781 337.6875 274.265625 336.230469 276.699219 C 334.773438 279.128906 333.257812 281.523438 331.679688 283.882812 C 330.105469 286.238281 328.472656 288.554688 326.785156 290.835938 C 325.09375 293.113281 323.351562 295.347656 321.554688 297.539062 C 319.753906 299.730469 317.902344 301.875 316 303.976562 C 314.09375 306.078125 312.140625 308.128906 310.136719 310.136719 C 308.128906 312.140625 306.078125 314.09375 303.976562 316 C 301.875 317.902344 299.730469 319.753906 297.539062 321.554688 C 295.347656 323.351562 293.113281 325.097656 290.832031 326.785156 C 288.554688 328.472656 286.238281 330.105469 283.882812 331.679688 C 281.523438 333.257812 279.128906 334.773438 276.699219 336.230469 C 274.265625 337.6875 271.800781 339.085938 269.296875 340.421875 C 266.796875 341.757812 264.265625 343.03125 261.703125 344.246094 C 259.140625 345.457031 256.546875 346.605469 253.929688 347.691406 C 251.308594 348.777344 248.664062 349.796875 245.996094 350.75 C 243.324219 351.707031 240.632812 352.597656 237.921875 353.417969 C 235.207031 354.242188 232.476562 355 229.726562 355.6875 C 226.976562 356.375 224.210938 356.996094 221.429688 357.550781 C 218.648438 358.101562 215.855469 358.589844 213.050781 359.003906 C 210.246094 359.421875 207.433594 359.765625 204.609375 360.046875 C 201.789062 360.324219 198.960938 360.53125 196.128906 360.671875 C 193.296875 360.808594 190.464844 360.878906 187.628906 360.878906 C 184.792969 360.878906 181.960938 360.808594 179.128906 360.671875 C 176.296875 360.53125 173.46875 360.324219 170.648438 360.046875 C 167.824219 359.765625 165.011719 359.421875 162.207031 359.003906 C 159.402344 358.589844 156.609375 358.101562 153.828125 357.550781 C 151.046875 356.996094 148.28125 356.375 145.53125 355.6875 C 142.78125 355 140.050781 354.242188 137.335938 353.417969 C 134.625 352.597656 131.933594 351.707031 129.261719 350.75 C 126.59375 349.796875 123.949219 348.777344 121.328125 347.691406 C 118.710938 346.605469 116.117188 345.457031 113.554688 344.246094 C 110.992188 343.03125 108.460938 341.757812 105.960938 340.421875 C 103.460938 339.085938 100.992188 337.6875 98.5625 336.230469 C 96.128906 334.773438 93.734375 333.257812 91.375 331.679688 C 89.019531 330.105469 86.703125 328.472656 84.425781 326.785156 C 82.148438 325.097656 79.914062 323.351562 77.71875 321.554688 C 75.527344 319.753906 73.382812 317.902344 71.28125 316 C 69.179688 314.09375 67.128906 312.140625 65.121094 310.136719 C 63.117188 308.128906 61.164062 306.078125 59.257812 303.976562 C 57.355469 301.875 55.503906 299.730469 53.703125 297.539062 C 51.90625 295.347656 50.164062 293.113281 48.472656 290.835938 C 46.785156 288.554688 45.152344 286.238281 43.578125 283.882812 C 42 281.523438 40.484375 279.128906 39.027344 276.699219 C 37.570312 274.265625 36.171875 271.800781 34.835938 269.296875 C 33.5 266.796875 32.226562 264.265625 31.011719 261.703125 C 29.800781 259.140625 28.652344 256.546875 27.566406 253.929688 C 26.480469 251.308594 25.460938 248.664062 24.507812 245.996094 C 23.550781 243.324219 22.664062 240.632812 21.839844 237.921875 C 21.015625 235.207031 20.261719 232.476562 19.570312 229.726562 C 18.882812 226.976562 18.261719 224.210938 17.707031 221.429688 C 17.15625 218.648438 16.671875 215.855469 16.253906 213.050781 C 15.839844 210.246094 15.492188 207.433594 15.214844 204.609375 C 14.933594 201.789062 14.726562 198.960938 14.585938 196.128906 C 14.449219 193.296875 14.378906 190.464844 14.378906 187.628906 C 14.378906 184.792969 14.449219 181.960938 14.585938 179.128906 C 14.726562 176.296875 14.933594 173.46875 15.214844 170.648438 C 15.492188 167.824219 15.839844 165.011719 16.253906 162.207031 C 16.671875 159.402344 17.15625 156.609375 17.707031 153.828125 C 18.261719 151.050781 18.882812 148.285156 19.570312 145.53125 C 20.261719 142.78125 21.015625 140.050781 21.839844 137.335938 C 22.664062 134.625 23.550781 131.933594 24.507812 129.261719 C 25.460938 126.59375 26.480469 123.949219 27.566406 121.328125 C 28.652344 118.710938 29.800781 116.117188 31.011719 113.554688 C 32.226562 110.992188 33.5 108.460938 34.835938 105.960938 C 36.171875 103.460938 37.570312 100.992188 39.027344 98.5625 C 40.484375 96.128906 42 93.734375 43.578125 91.375 C 45.152344 89.019531 46.785156 86.703125 48.472656 84.425781 C 50.164062 82.148438 51.90625 79.914062 53.703125 77.71875 C 55.503906 75.527344 57.355469 73.382812 59.257812 71.28125 C 61.164062 69.179688 63.117188 67.128906 65.121094 65.121094 C 67.128906 63.117188 69.179688 61.164062 71.28125 59.257812 C 73.382812 57.355469 75.527344 55.503906 77.71875 53.707031 C 79.914062 51.90625 82.148438 50.164062 84.425781 48.472656 C 86.703125 46.785156 89.019531 45.152344 91.375 43.578125 C 93.734375 42 96.128906 40.484375 98.5625 39.027344 C 100.992188 37.570312 103.460938 36.171875 105.960938 34.835938 C 108.460938 33.5 110.992188 32.226562 113.554688 31.011719 C 116.117188 29.800781 118.710938 28.652344 121.328125 27.566406 C 123.949219 26.480469 126.59375 25.460938 129.261719 24.507812 C 131.933594 23.550781 134.625 22.664062 137.335938 21.839844 C 140.050781 21.015625 142.78125 20.261719 145.53125 19.570312 C 148.28125 18.882812 151.046875 18.261719 153.828125 17.707031 C 156.609375 17.15625 159.402344 16.671875 162.207031 16.253906 C 165.011719 15.839844 167.824219 15.492188 170.648438 15.214844 C 173.46875 14.933594 176.296875 14.726562 179.128906 14.585938 C 181.960938 14.449219 184.792969 14.378906 187.628906 14.378906 C 190.464844 14.378906 193.296875 14.449219 196.128906 14.585938 C 198.960938 14.726562 201.789062 14.933594 204.609375 15.214844 C 207.433594 15.492188 210.246094 15.839844 213.050781 16.253906 C 215.855469 16.671875 218.648438 17.15625 221.429688 17.707031 C 224.210938 18.261719 226.976562 18.882812 229.726562 19.570312 C 232.476562 20.261719 235.207031 21.015625 237.921875 21.839844 C 240.632812 22.664062 243.324219 23.550781 245.996094 24.507812 C 248.664062 25.460938 251.308594 26.480469 253.929688 27.566406 C 256.546875 28.652344 259.140625 29.800781 261.703125 31.011719 C 264.265625 32.226562 266.796875 33.5 269.296875 34.835938 C 271.800781 36.171875 274.265625 37.570312 276.699219 39.027344 C 279.128906 40.484375 281.523438 42 283.882812 43.578125 C 286.238281 45.152344 288.554688 46.785156 290.832031 48.472656 C 293.113281 50.164062 295.347656 51.90625 297.539062 53.707031 C 299.730469 55.503906 301.875 57.355469 303.976562 59.257812 C 306.078125 61.164062 308.128906 63.117188 310.136719 65.121094 C 312.140625 67.128906 314.09375 69.179688 316 71.28125 C 317.902344 73.382812 319.753906 75.527344 321.554688 77.71875 C 323.351562 79.914062 325.09375 82.148438 326.785156 84.425781 C 328.472656 86.703125 330.105469 89.019531 331.679688 91.375 C 333.257812 93.734375 334.773438 96.128906 336.230469 98.5625 C 337.6875 100.992188 339.085938 103.460938 340.421875 105.960938 C 341.757812 108.460938 343.03125 110.992188 344.246094 113.554688 C 345.457031 116.117188 346.605469 118.710938 347.691406 121.328125 C 348.777344 123.949219 349.796875 126.59375 350.75 129.261719 C 351.707031 131.933594 352.597656 134.625 353.417969 137.335938 C 354.242188 140.050781 355 142.78125 355.6875 145.53125 C 356.375 148.285156 356.996094 151.050781 357.550781 153.828125 C 358.101562 156.609375 358.585938 159.402344 359.003906 162.207031 C 359.421875 165.011719 359.765625 167.824219 360.042969 170.648438 C 360.324219 173.46875 360.53125 176.296875 360.671875 179.128906 C 360.808594 181.960938 360.878906 184.792969 360.878906 187.628906 Z M 360.878906 187.628906 "/></clipPath><linearGradient x1="15.886126" gradientTransform="matrix(11.948277,0,0,11.948277,-3.54335,-3.54327)" y1="1.387887" x2="16.113875" gradientUnits="userSpaceOnUse" y2="30.612107" id="0ce38a239b"><stop style="stop-color:#08c8f6;stop-opacity:1;" offset="0"/><stop style="stop-color:#08c8f6;stop-opacity:1;" offset="0.00773287"/><stop style="stop-color:#08c8f6;stop-opacity:1;" offset="0.0078125"/><stop style="stop-color:#09c7f6;stop-opacity:1;" offset="0.015625"/><stop style="stop-color:#09c6f6;stop-opacity:1;" offset="0.0234375"/><stop style="stop-color:#0ac5f6;stop-opacity:1;" offset="0.03125"/><stop style="stop-color:#0ac5f6;stop-opacity:1;" offset="0.0390625"/><stop style="stop-color:#0bc4f6;stop-opacity:1;" offset="0.046875"/><stop style="stop-color:#0bc3f6;stop-opacity:1;" offset="0.0546875"/><stop style="stop-color:#0cc2f6;stop-opacity:1;" offset="0.0625"/><stop style="stop-color:#0cc1f6;stop-opacity:1;" offset="0.0703125"/><stop style="stop-color:#0dc0f6;stop-opacity:1;" offset="0.078125"/><stop style="stop-color:#0dc0f6;stop-opacity:1;" offset="0.0859375"/><stop style="stop-color:#0ebff6;stop-opacity:1;" offset="0.09375"/><stop style="stop-color:#0fbef6;stop-opacity:1;" offset="0.101562"/><stop style="stop-color:#0fbdf7;stop-opacity:1;" offset="0.109375"/><stop style="stop-color:#10bcf7;stop-opacity:1;" offset="0.117188"/><stop style="stop-color:#10bbf7;stop-opacity:1;" offset="0.125"/><stop style="stop-color:#11bbf7;stop-opacity:1;" offset="0.132812"/><stop style="stop-color:#11baf7;stop-opacity:1;" offset="0.140625"/><stop style="stop-color:#12b9f7;stop-opacity:1;" offset="0.148437"/><stop style="stop-color:#12b8f7;stop-opacity:1;" offset="0.15625"/><stop style="stop-color:#13b7f7;stop-opacity:1;" offset="0.164062"/><stop style="stop-color:#13b6f7;stop-opacity:1;" offset="0.171875"/><stop style="stop-color:#14b5f7;stop-opacity:1;" offset="0.179687"/><stop style="stop-color:#15b5f7;stop-opacity:1;" offset="0.1875"/><stop style="stop-color:#15b4f7;stop-opacity:1;" offset="0.195312"/><stop style="stop-color:#16b3f7;stop-opacity:1;" offset="0.203125"/><stop style="stop-color:#16b2f7;stop-opacity:1;" offset="0.210937"/><stop style="stop-color:#17b1f7;stop-opacity:1;" offset="0.21875"/><stop style="stop-color:#17b0f7;stop-opacity:1;" offset="0.226562"/><stop style="stop-color:#18b0f7;stop-opacity:1;" offset="0.234375"/><stop style="stop-color:#18aff7;stop-opacity:1;" offset="0.242187"/><stop style="stop-color:#19aef7;stop-opacity:1;" offset="0.25"/><stop style="stop-color:#19adf7;stop-opacity:1;" offset="0.257812"/><stop style="stop-color:#1aacf7;stop-opacity:1;" offset="0.265625"/><stop style="stop-color:#1aabf7;stop-opacity:1;" offset="0.273438"/><stop style="stop-color:#1babf7;stop-opacity:1;" offset="0.28125"/><stop style="stop-color:#1caaf7;stop-opacity:1;" offset="0.289062"/><stop style="stop-color:#1ca9f7;stop-opacity:1;" offset="0.296875"/><stop style="stop-color:#1da8f7;stop-opacity:1;" offset="0.304688"/><stop style="stop-color:#1da7f8;stop-opacity:1;" offset="0.3125"/><stop style="stop-color:#1ea6f8;stop-opacity:1;" offset="0.320312"/><stop style="stop-color:#1ea5f8;stop-opacity:1;" offset="0.328125"/><stop style="stop-color:#1fa5f8;stop-opacity:1;" offset="0.335938"/><stop style="stop-color:#1fa4f8;stop-opacity:1;" offset="0.34375"/><stop style="stop-color:#20a3f8;stop-opacity:1;" offset="0.351562"/><stop style="stop-color:#20a2f8;stop-opacity:1;" offset="0.359375"/><stop style="stop-color:#21a1f8;stop-opacity:1;" offset="0.367188"/><stop style="stop-color:#22a0f8;stop-opacity:1;" offset="0.375"/><stop style="stop-color:#22a0f8;stop-opacity:1;" offset="0.382812"/><stop style="stop-color:#239ff8;stop-opacity:1;" offset="0.390625"/><stop style="stop-color:#239ef8;stop-opacity:1;" offset="0.398438"/><stop style="stop-color:#249df8;stop-opacity:1;" offset="0.40625"/><stop style="stop-color:#249cf8;stop-opacity:1;" offset="0.414062"/><stop style="stop-color:#259bf8;stop-opacity:1;" offset="0.421875"/><stop style="stop-color:#259af8;stop-opacity:1;" offset="0.429688"/><stop style="stop-color:#269af8;stop-opacity:1;" offset="0.4375"/><stop style="stop-color:#2699f8;stop-opacity:1;" offset="0.445312"/><stop style="stop-color:#2798f8;stop-opacity:1;" offset="0.453125"/><stop style="stop-color:#2897f8;stop-opacity:1;" offset="0.460938"/><stop style="stop-color:#2896f8;stop-opacity:1;" offset="0.46875"/><stop style="stop-color:#2995f8;stop-opacity:1;" offset="0.476562"/><stop style="stop-color:#2995f8;stop-opacity:1;" offset="0.484375"/><stop style="stop-color:#2a94f8;stop-opacity:1;" offset="0.492188"/><stop style="stop-color:#2a93f8;stop-opacity:1;" offset="0.5"/><stop style="stop-color:#2b92f9;stop-opacity:1;" offset="0.507812"/><stop style="stop-color:#2b91f9;stop-opacity:1;" offset="0.515625"/><stop style="stop-color:#2c90f9;stop-opacity:1;" offset="0.523437"/><stop style="stop-color:#2c90f9;stop-opacity:1;" offset="0.53125"/><stop style="stop-color:#2d8ff9;stop-opacity:1;" offset="0.539062"/><stop style="stop-color:#2d8ef9;stop-opacity:1;" offset="0.546875"/><stop style="stop-color:#2e8df9;stop-opacity:1;" offset="0.554688"/><stop style="stop-color:#2f8cf9;stop-opacity:1;" offset="0.5625"/><stop style="stop-color:#2f8bf9;stop-opacity:1;" offset="0.570312"/><stop style="stop-color:#308af9;stop-opacity:1;" offset="0.578125"/><stop style="stop-color:#308af9;stop-opacity:1;" offset="0.585938"/><stop style="stop-color:#3189f9;stop-opacity:1;" offset="0.59375"/><stop style="stop-color:#3188f9;stop-opacity:1;" offset="0.601562"/><stop style="stop-color:#3287f9;stop-opacity:1;" offset="0.609375"/><stop style="stop-color:#3286f9;stop-opacity:1;" offset="0.617187"/><stop style="stop-color:#3385f9;stop-opacity:1;" offset="0.625"/><stop style="stop-color:#3385f9;stop-opacity:1;" offset="0.632812"/><stop style="stop-color:#3484f9;stop-opacity:1;" offset="0.640625"/><stop style="stop-color:#3583f9;stop-opacity:1;" offset="0.648437"/><stop style="stop-color:#3582f9;stop-opacity:1;" offset="0.65625"/><stop style="stop-color:#3681f9;stop-opacity:1;" offset="0.664062"/><stop style="stop-color:#3680f9;stop-opacity:1;" offset="0.671875"/><stop style="stop-color:#3780f9;stop-opacity:1;" offset="0.679687"/><stop style="stop-color:#377ff9;stop-opacity:1;" offset="0.6875"/><stop style="stop-color:#387ef9;stop-opacity:1;" offset="0.695312"/><stop style="stop-color:#387df9;stop-opacity:1;" offset="0.703125"/><stop style="stop-color:#397cfa;stop-opacity:1;" offset="0.710938"/><stop style="stop-color:#397bfa;stop-opacity:1;" offset="0.71875"/><stop style="stop-color:#3a7afa;stop-opacity:1;" offset="0.726562"/><stop style="stop-color:#3b7afa;stop-opacity:1;" offset="0.734375"/><stop style="stop-color:#3b79fa;stop-opacity:1;" offset="0.742187"/><stop style="stop-color:#3c78fa;stop-opacity:1;" offset="0.75"/><stop style="stop-color:#3c77fa;stop-opacity:1;" offset="0.757812"/><stop style="stop-color:#3d76fa;stop-opacity:1;" offset="0.765625"/><stop style="stop-color:#3d75fa;stop-opacity:1;" offset="0.773437"/><stop style="stop-color:#3e75fa;stop-opacity:1;" offset="0.78125"/><stop style="stop-color:#3e74fa;stop-opacity:1;" offset="0.789062"/><stop style="stop-color:#3f73fa;stop-opacity:1;" offset="0.796875"/><stop style="stop-color:#3f72fa;stop-opacity:1;" offset="0.804687"/><stop style="stop-color:#4071fa;stop-opacity:1;" offset="0.8125"/><stop style="stop-color:#4170fa;stop-opacity:1;" offset="0.820312"/><stop style="stop-color:#4170fa;stop-opacity:1;" offset="0.828125"/><stop style="stop-color:#426ffa;stop-opacity:1;" offset="0.835937"/><stop style="stop-color:#426efa;stop-opacity:1;" offset="0.84375"/><stop style="stop-color:#436dfa;stop-opacity:1;" offset="0.851562"/><stop style="stop-color:#436cfa;stop-opacity:1;" offset="0.859375"/><stop style="stop-color:#446bfa;stop-opacity:1;" offset="0.867187"/><stop style="stop-color:#446afa;stop-opacity:1;" offset="0.875"/><stop style="stop-color:#456afa;stop-opacity:1;" offset="0.882812"/><stop style="stop-color:#4569fa;stop-opacity:1;" offset="0.890625"/><stop style="stop-color:#4668fa;stop-opacity:1;" offset="0.898437"/><stop style="stop-color:#4667fb;stop-opacity:1;" offset="0.90625"/><stop style="stop-color:#4766fb;stop-opacity:1;" offset="0.914062"/><stop style="stop-color:#4865fb;stop-opacity:1;" offset="0.921875"/><stop style="stop-color:#4865fb;stop-opacity:1;" offset="0.929687"/><stop style="stop-color:#4964fb;stop-opacity:1;" offset="0.9375"/><stop style="stop-color:#4963fb;stop-opacity:1;" offset="0.945312"/><stop style="stop-color:#4a62fb;stop-opacity:1;" offset="0.953125"/><stop style="stop-color:#4a61fb;stop-opacity:1;" offset="0.960938"/><stop style="stop-color:#4b60fb;stop-opacity:1;" offset="0.96875"/><stop style="stop-color:#4b60fb;stop-opacity:1;" offset="0.976562"/><stop style="stop-color:#4c5ffb;stop-opacity:1;" offset="0.984375"/><stop style="stop-color:#4c5efb;stop-opacity:1;" offset="0.992187"/><stop style="stop-color:#4d5dfb;stop-opacity:1;" offset="0.992267"/><stop style="stop-color:#4d5dfb;stop-opacity:1;" offset="1"/></linearGradient></defs><g id="db8e111ed7"><g clip-rule="nonzero" clip-path="url(#38ded60318)"><g clip-rule="nonzero" clip-path="url(#c76c6b05fc)"><path style=" stroke:none;fill-rule:nonzero;fill:url(#0ce38a239b);" d="M 14.378906 14.378906 L 14.378906 360.878906 L 360.878906 360.878906 L 360.878906 14.378906 Z M 14.378906 14.378906 "/></g></g><path style=" stroke:none;fill-rule:evenodd;fill:#ffffff;fill-opacity:1;" d="M 180.855469 178.355469 L 240.191406 142.75 L 180.855469 103.203125 Z M 180.855469 196.902344 L 180.855469 272.054688 L 240.191406 232.507812 Z M 168.90625 175.800781 L 126.980469 150.710938 C 126.644531 150.515625 126.292969 150.355469 125.925781 150.230469 C 125.558594 150.105469 125.183594 150.015625 124.796875 149.964844 C 124.414062 149.914062 124.027344 149.898438 123.640625 149.921875 C 123.253906 149.945312 122.875 150.003906 122.5 150.101562 C 122.121094 150.199219 121.761719 150.332031 121.410156 150.5 C 121.0625 150.664062 120.730469 150.867188 120.421875 151.097656 C 120.109375 151.328125 119.824219 151.589844 119.5625 151.878906 C 119.304688 152.164062 119.074219 152.476562 118.875 152.808594 C 118.675781 153.140625 118.507812 153.488281 118.378906 153.851562 C 118.246094 154.21875 118.148438 154.589844 118.089844 154.972656 C 118.03125 155.359375 118.011719 155.742188 118.027344 156.128906 C 118.042969 156.519531 118.09375 156.898438 118.1875 157.277344 C 118.277344 157.652344 118.402344 158.019531 118.5625 158.371094 C 118.726562 158.722656 118.917969 159.058594 119.144531 159.371094 C 119.371094 159.6875 119.625 159.976562 119.910156 160.242188 C 120.191406 160.507812 120.496094 160.742188 120.828125 160.949219 L 165.394531 187.628906 L 120.828125 214.371094 C 120.496094 214.574219 120.191406 214.808594 119.910156 215.074219 C 119.625 215.339844 119.371094 215.632812 119.144531 215.945312 C 118.917969 216.261719 118.726562 216.59375 118.5625 216.945312 C 118.402344 217.300781 118.277344 217.664062 118.1875 218.042969 C 118.09375 218.417969 118.042969 218.800781 118.027344 219.1875 C 118.011719 219.574219 118.03125 219.960938 118.089844 220.34375 C 118.148438 220.726562 118.246094 221.101562 118.378906 221.464844 C 118.507812 221.832031 118.675781 222.179688 118.875 222.511719 C 119.074219 222.84375 119.304688 223.152344 119.5625 223.441406 C 119.824219 223.726562 120.109375 223.988281 120.421875 224.21875 C 120.730469 224.453125 121.0625 224.652344 121.410156 224.820312 C 121.761719 224.988281 122.121094 225.121094 122.5 225.21875 C 122.875 225.3125 123.253906 225.375 123.640625 225.398438 C 124.027344 225.421875 124.414062 225.40625 124.796875 225.355469 C 125.183594 225.300781 125.558594 225.210938 125.925781 225.085938 C 126.292969 224.960938 126.644531 224.804688 126.980469 224.609375 L 168.90625 199.519531 L 168.90625 283.214844 C 168.90625 283.757812 168.976562 284.289062 169.121094 284.808594 C 169.265625 285.332031 169.476562 285.824219 169.753906 286.289062 C 170.03125 286.753906 170.367188 287.171875 170.757812 287.546875 C 171.152344 287.917969 171.585938 288.234375 172.0625 288.488281 C 172.539062 288.742188 173.042969 288.929688 173.570312 289.050781 C 174.097656 289.167969 174.632812 289.214844 175.175781 289.1875 C 175.714844 289.160156 176.242188 289.0625 176.757812 288.890625 C 177.269531 288.722656 177.753906 288.488281 178.203125 288.1875 L 254.671875 237.203125 C 254.878906 237.0625 255.078125 236.910156 255.265625 236.746094 C 255.457031 236.582031 255.632812 236.40625 255.800781 236.222656 C 255.96875 236.035156 256.125 235.835938 256.265625 235.632812 C 256.40625 235.425781 256.535156 235.210938 256.652344 234.988281 C 256.769531 234.765625 256.867188 234.539062 256.957031 234.304688 C 257.042969 234.066406 257.113281 233.828125 257.171875 233.585938 C 257.226562 233.339844 257.269531 233.09375 257.292969 232.84375 C 257.320312 232.59375 257.328125 232.34375 257.324219 232.09375 C 257.316406 231.84375 257.296875 231.59375 257.257812 231.347656 C 257.21875 231.101562 257.167969 230.855469 257.101562 230.613281 C 257.03125 230.371094 256.949219 230.136719 256.851562 229.90625 C 256.753906 229.675781 256.640625 229.453125 256.515625 229.234375 C 256.390625 229.019531 256.25 228.8125 256.097656 228.613281 C 255.949219 228.414062 255.785156 228.222656 255.609375 228.046875 C 255.433594 227.867188 255.246094 227.699219 255.050781 227.542969 C 254.851562 227.390625 254.648438 227.246094 254.433594 227.117188 L 188.621094 187.628906 L 254.433594 148.199219 C 254.648438 148.070312 254.851562 147.929688 255.050781 147.773438 C 255.246094 147.617188 255.433594 147.453125 255.609375 147.273438 C 255.785156 147.09375 255.949219 146.90625 256.097656 146.707031 C 256.25 146.507812 256.390625 146.300781 256.515625 146.082031 C 256.640625 145.867188 256.753906 145.640625 256.851562 145.410156 C 256.949219 145.179688 257.03125 144.945312 257.101562 144.703125 C 257.167969 144.460938 257.21875 144.21875 257.257812 143.96875 C 257.296875 143.722656 257.316406 143.472656 257.324219 143.222656 C 257.328125 142.972656 257.320312 142.722656 257.292969 142.472656 C 257.269531 142.222656 257.226562 141.976562 257.171875 141.734375 C 257.113281 141.488281 257.042969 141.25 256.957031 141.015625 C 256.867188 140.78125 256.769531 140.550781 256.652344 140.328125 C 256.535156 140.105469 256.40625 139.890625 256.265625 139.6875 C 256.125 139.480469 255.96875 139.285156 255.800781 139.097656 C 255.632812 138.910156 255.457031 138.734375 255.265625 138.570312 C 255.078125 138.40625 254.878906 138.253906 254.671875 138.117188 L 178.203125 87.132812 C 177.753906 86.832031 177.273438 86.597656 176.761719 86.429688 C 176.253906 86.257812 175.726562 86.160156 175.1875 86.132812 C 174.652344 86.105469 174.121094 86.148438 173.59375 86.265625 C 173.066406 86.378906 172.566406 86.5625 172.089844 86.816406 C 171.613281 87.066406 171.179688 87.378906 170.785156 87.746094 C 170.394531 88.117188 170.058594 88.53125 169.777344 88.992188 C 169.496094 89.449219 169.285156 89.941406 169.136719 90.457031 C 168.988281 90.976562 168.910156 91.503906 168.90625 92.042969 Z M 168.90625 175.800781 "/></g></svg>