<svg xmlns="http://www.w3.org/2000/svg" xmlns:xlink="http://www.w3.org/1999/xlink" width="500" zoomAndPan="magnify" viewBox="0 0 375 374.999991" height="500" preserveAspectRatio="xMidYMid meet" version="1.2"><defs><clipPath id="a8868f3ea0"><path d="M 139 177 L 330.667969 177 L 330.667969 364 L 139 364 Z M 139 177 "/></clipPath><clipPath id="50e8055843"><path d="M 44.167969 11 L 236 11 L 236 198 L 44.167969 198 Z M 44.167969 11 "/></clipPath></defs><g id="6af0e31f62"><g clip-rule="nonzero" clip-path="url(#a8868f3ea0)"><path style=" stroke:none;fill-rule:nonzero;fill:#87cefa;fill-opacity:1;" d="M 165.796875 177.238281 L 304.144531 177.238281 C 318.753906 177.238281 330.597656 189.078125 330.597656 203.683594 L 330.597656 303.167969 C 330.597656 317.769531 318.753906 329.609375 304.144531 329.609375 L 300.117188 329.609375 C 298.164062 329.609375 296.582031 331.191406 296.582031 333.144531 L 296.582031 360.59375 C 296.582031 363.066406 293.6875 364.414062 291.789062 362.816406 L 255.457031 332.222656 C 253.449219 330.53125 250.910156 329.601562 248.285156 329.601562 L 165.808594 329.601562 C 151.199219 329.601562 139.355469 317.761719 139.355469 303.15625 L 139.355469 203.691406 C 139.335938 189.089844 151.179688 177.238281 165.796875 177.238281 Z M 165.796875 177.238281 "/></g><path style=" stroke:none;fill-rule:nonzero;fill:#ffffff;fill-opacity:1;" d="M 258.5 268.503906 C 258.5 268.503906 236.609375 275.496094 232.65625 304.496094 C 232.355469 306.65625 231.351562 308.664062 229.734375 310.125 L 229.675781 310.171875 C 226.757812 312.8125 222.457031 313.269531 219.042969 311.289062 L 218.570312 311.015625 C 216.484375 309.808594 214.949219 307.828125 214.34375 305.492188 C 212.78125 299.484375 210.894531 286.964844 216.78125 272.863281 C 217.40625 271.367188 216.269531 269.71875 214.652344 269.71875 L 201.488281 269.71875 C 192.621094 269.71875 186.125 261.367188 188.3125 252.773438 L 196.667969 220.023438 C 198.203125 214.007812 203.625 209.792969 209.84375 209.792969 L 258.5 209.792969 Z M 258.5 268.503906 "/><path style=" stroke:none;fill-rule:nonzero;fill:#418de3;fill-opacity:1;" d="M 261.292969 209.785156 L 269.90625 209.785156 C 277.351562 209.785156 283.378906 215.8125 283.378906 223.253906 L 283.378906 255.035156 C 283.378906 262.476562 277.351562 268.503906 269.90625 268.503906 L 261.292969 268.503906 Z M 261.292969 209.785156 "/><g clip-rule="nonzero" clip-path="url(#50e8055843)"><path style=" stroke:none;fill-rule:nonzero;fill:#418de3;fill-opacity:1;" d="M 209.078125 197.5625 L 70.730469 197.5625 C 56.125 197.5625 44.28125 185.722656 44.28125 171.109375 L 44.28125 71.636719 C 44.28125 57.03125 56.125 45.191406 70.730469 45.191406 L 74.757812 45.191406 C 76.714844 45.191406 78.292969 43.609375 78.292969 41.65625 L 78.292969 14.199219 C 78.292969 11.726562 81.1875 10.378906 83.085938 11.976562 L 119.417969 42.570312 C 121.425781 44.261719 123.96875 45.191406 126.589844 45.191406 L 209.070312 45.191406 C 223.675781 45.191406 235.519531 57.03125 235.519531 71.636719 L 235.519531 171.121094 C 235.539062 185.722656 223.6875 197.5625 209.078125 197.5625 Z M 209.078125 197.5625 "/></g><path style=" stroke:none;fill-rule:nonzero;fill:#ffffff;fill-opacity:1;" d="M 114.90625 110.152344 C 114.90625 110.152344 136.796875 103.15625 140.75 74.15625 C 141.050781 71.996094 142.054688 69.988281 143.671875 68.527344 L 143.730469 68.480469 C 146.648438 65.839844 150.949219 65.382812 154.363281 67.367188 L 154.835938 67.636719 C 156.921875 68.84375 158.457031 70.824219 159.0625 73.160156 C 160.625 79.167969 162.511719 91.6875 156.625 105.789062 C 156 107.285156 157.136719 108.933594 158.753906 108.933594 L 171.917969 108.933594 C 180.785156 108.933594 187.28125 117.285156 185.09375 125.878906 L 176.738281 158.628906 C 175.203125 164.644531 169.78125 168.859375 163.5625 168.859375 L 114.90625 168.859375 Z M 114.90625 110.152344 "/><path style=" stroke:none;fill-rule:nonzero;fill:#87cefa;fill-opacity:1;" d="M 112.113281 168.867188 L 103.5 168.867188 C 96.054688 168.867188 90.027344 162.839844 90.027344 155.402344 L 90.027344 123.617188 C 90.027344 116.179688 96.054688 110.152344 103.5 110.152344 L 112.113281 110.152344 Z M 112.113281 168.867188 "/><path style=" stroke:none;fill-rule:nonzero;fill:#142144;fill-opacity:1;" d="M 110.71875 110.152344 C 110.71875 107.808594 112.636719 106.066406 114.90625 105.964844 C 117.167969 105.863281 119.09375 107.964844 119.09375 110.152344 C 119.09375 112.558594 119.09375 114.960938 119.09375 117.367188 C 119.09375 127.914062 119.09375 138.453125 119.09375 149 C 119.09375 155.625 119.09375 162.246094 119.09375 168.867188 C 119.09375 171.210938 117.175781 172.953125 114.90625 173.054688 C 112.644531 173.15625 110.71875 171.054688 110.71875 168.867188 C 110.71875 166.460938 110.71875 164.058594 110.71875 161.652344 C 110.71875 151.105469 110.71875 140.566406 110.71875 130.019531 C 110.71875 123.40625 110.71875 116.773438 110.71875 110.152344 Z M 254.3125 209.785156 C 254.3125 216.40625 254.3125 223.027344 254.3125 229.652344 C 254.3125 240.199219 254.3125 250.738281 254.3125 261.285156 C 254.3125 263.695312 254.3125 266.09375 254.3125 268.503906 C 254.3125 270.6875 256.238281 272.789062 258.5 272.6875 C 260.769531 272.585938 262.6875 270.847656 262.6875 268.503906 C 262.6875 261.878906 262.6875 255.257812 262.6875 248.636719 C 262.6875 238.085938 262.6875 227.550781 262.6875 217 C 262.6875 214.59375 262.6875 212.191406 262.6875 209.785156 C 262.6875 207.597656 260.761719 205.496094 258.5 205.597656 C 256.230469 205.699219 254.3125 207.441406 254.3125 209.785156 Z M 254.3125 209.785156 "/></g></svg>