<svg xmlns="http://www.w3.org/2000/svg" xmlns:xlink="http://www.w3.org/1999/xlink" width="500" zoomAndPan="magnify" viewBox="0 0 375 374.999991" height="500" preserveAspectRatio="xMidYMid meet" version="1.2"><defs><clipPath id="9c826a6225"><path d="M 11.722656 199 L 176 199 L 176 363.472656 L 11.722656 363.472656 Z M 11.722656 199 "/></clipPath><clipPath id="c2b6ac7d30"><path d="M 199 199 L 363.472656 199 L 363.472656 363.472656 L 199 363.472656 Z M 199 199 "/></clipPath><clipPath id="432a69f1ad"><path d="M 11.722656 11.722656 L 176 11.722656 L 176 176 L 11.722656 176 Z M 11.722656 11.722656 "/></clipPath><clipPath id="9ed1cb8ca3"><path d="M 199 11.722656 L 363.472656 11.722656 L 363.472656 176 L 199 176 Z M 199 11.722656 "/></clipPath></defs><g id="9b26f12996"><g clip-rule="nonzero" clip-path="url(#9c826a6225)"><path style=" stroke:none;fill-rule:nonzero;fill:#0070f3;fill-opacity:1;" d="M 175.902344 220.679688 L 175.902344 304.683594 C 175.902344 306.601562 175.808594 308.515625 175.617188 310.425781 C 175.425781 312.332031 175.144531 314.226562 174.769531 316.109375 C 174.394531 317.992188 173.925781 319.847656 173.371094 321.683594 C 172.8125 323.519531 172.164062 325.324219 171.429688 327.097656 C 170.695312 328.867188 169.875 330.601562 168.96875 332.292969 C 168.066406 333.984375 167.078125 335.628906 166.011719 337.222656 C 164.945312 338.816406 163.804688 340.355469 162.589844 341.839844 C 161.371094 343.320312 160.085938 344.742188 158.726562 346.097656 C 157.371094 347.453125 155.949219 348.742188 154.46875 349.957031 C 152.984375 351.175781 151.445312 352.316406 149.851562 353.382812 C 148.257812 354.449219 146.613281 355.433594 144.921875 356.339844 C 143.230469 357.246094 141.5 358.066406 139.726562 358.800781 C 137.953125 359.535156 136.148438 360.183594 134.316406 360.738281 C 132.480469 361.296875 130.621094 361.765625 128.738281 362.140625 C 126.859375 362.515625 124.960938 362.796875 123.054688 362.988281 C 121.144531 363.175781 119.230469 363.273438 117.3125 363.273438 L 70.316406 363.273438 C 68.398438 363.273438 66.484375 363.175781 64.574219 362.988281 C 62.664062 362.796875 60.769531 362.515625 58.886719 362.140625 C 57.007812 361.765625 55.148438 361.296875 53.3125 360.738281 C 51.476562 360.183594 49.671875 359.535156 47.902344 358.800781 C 46.128906 358.066406 44.398438 357.246094 42.707031 356.339844 C 41.015625 355.433594 39.371094 354.449219 37.777344 353.382812 C 36.179688 352.316406 34.640625 351.175781 33.160156 349.957031 C 31.675781 348.742188 30.257812 347.453125 28.902344 346.097656 C 27.542969 344.742188 26.257812 343.320312 25.039062 341.839844 C 23.824219 340.355469 22.679688 338.816406 21.613281 337.222656 C 20.546875 335.628906 19.5625 333.984375 18.65625 332.292969 C 17.753906 330.601562 16.933594 328.867188 16.199219 327.097656 C 15.464844 325.324219 14.816406 323.519531 14.257812 321.683594 C 13.699219 319.847656 13.234375 317.992188 12.859375 316.109375 C 12.484375 314.226562 12.199219 312.332031 12.011719 310.425781 C 11.820312 308.515625 11.726562 306.601562 11.722656 304.683594 L 11.722656 257.6875 C 11.726562 255.765625 11.820312 253.855469 12.011719 251.945312 C 12.199219 250.035156 12.484375 248.140625 12.859375 246.257812 C 13.234375 244.378906 13.699219 242.519531 14.257812 240.683594 C 14.816406 238.847656 15.464844 237.042969 16.199219 235.273438 C 16.933594 233.5 17.753906 231.769531 18.65625 230.078125 C 19.5625 228.386719 20.546875 226.742188 21.613281 225.148438 C 22.679688 223.550781 23.824219 222.011719 25.039062 220.53125 C 26.257812 219.046875 27.542969 217.628906 28.902344 216.269531 C 30.257812 214.914062 31.675781 213.628906 33.160156 212.410156 C 34.640625 211.191406 36.179688 210.050781 37.777344 208.984375 C 39.371094 207.917969 41.015625 206.933594 42.707031 206.027344 C 44.398438 205.125 46.128906 204.304688 47.902344 203.570312 C 49.671875 202.832031 51.476562 202.1875 53.3125 201.628906 C 55.148438 201.070312 57.007812 200.605469 58.886719 200.230469 C 60.769531 199.851562 62.664062 199.570312 64.574219 199.382812 C 66.484375 199.191406 68.398438 199.097656 70.316406 199.09375 L 154.316406 199.09375 C 155.023438 199.09375 155.730469 199.128906 156.433594 199.199219 C 157.136719 199.269531 157.835938 199.375 158.527344 199.511719 C 159.21875 199.652344 159.90625 199.824219 160.582031 200.027344 C 161.257812 200.234375 161.921875 200.472656 162.574219 200.742188 C 163.226562 201.015625 163.867188 201.316406 164.488281 201.648438 C 165.113281 201.984375 165.71875 202.347656 166.304688 202.738281 C 166.890625 203.132812 167.460938 203.554688 168.003906 204 C 168.550781 204.449219 169.074219 204.925781 169.574219 205.421875 C 170.074219 205.921875 170.546875 206.445312 170.996094 206.992188 C 171.445312 207.539062 171.867188 208.105469 172.257812 208.695312 C 172.652344 209.28125 173.015625 209.886719 173.347656 210.507812 C 173.679688 211.132812 173.984375 211.769531 174.253906 212.421875 C 174.527344 213.078125 174.761719 213.742188 174.96875 214.417969 C 175.175781 215.09375 175.347656 215.777344 175.484375 216.472656 C 175.625 217.164062 175.726562 217.863281 175.796875 218.566406 C 175.867188 219.269531 175.902344 219.972656 175.902344 220.679688 Z M 175.902344 220.679688 "/></g><g clip-rule="nonzero" clip-path="url(#c2b6ac7d30)"><path style=" stroke:none;fill-rule:nonzero;fill:#0070f3;fill-opacity:1;" d="M 363.273438 257.6875 L 363.273438 304.683594 C 363.273438 306.601562 363.175781 308.515625 362.988281 310.425781 C 362.796875 312.332031 362.515625 314.226562 362.140625 316.109375 C 361.765625 317.992188 361.296875 319.847656 360.738281 321.683594 C 360.183594 323.519531 359.535156 325.324219 358.800781 327.097656 C 358.066406 328.867188 357.246094 330.601562 356.339844 332.292969 C 355.433594 333.984375 354.449219 335.628906 353.382812 337.222656 C 352.316406 338.816406 351.175781 340.355469 349.957031 341.839844 C 348.742188 343.320312 347.453125 344.742188 346.097656 346.097656 C 344.742188 347.453125 343.320312 348.742188 341.839844 349.957031 C 340.355469 351.175781 338.816406 352.316406 337.222656 353.382812 C 335.628906 354.449219 333.984375 355.433594 332.292969 356.339844 C 330.601562 357.246094 328.867188 358.066406 327.097656 358.800781 C 325.324219 359.535156 323.519531 360.183594 321.683594 360.738281 C 319.847656 361.296875 317.992188 361.765625 316.109375 362.140625 C 314.226562 362.515625 312.332031 362.796875 310.425781 362.988281 C 308.515625 363.175781 306.601562 363.273438 304.683594 363.273438 L 257.6875 363.273438 C 255.765625 363.273438 253.855469 363.175781 251.945312 362.988281 C 250.035156 362.796875 248.140625 362.515625 246.257812 362.140625 C 244.378906 361.765625 242.519531 361.296875 240.683594 360.738281 C 238.847656 360.183594 237.042969 359.535156 235.273438 358.800781 C 233.5 358.066406 231.769531 357.246094 230.078125 356.339844 C 228.386719 355.433594 226.742188 354.449219 225.148438 353.382812 C 223.550781 352.316406 222.011719 351.175781 220.53125 349.957031 C 219.046875 348.742188 217.628906 347.453125 216.269531 346.097656 C 214.914062 344.742188 213.628906 343.320312 212.410156 341.839844 C 211.191406 340.355469 210.050781 338.816406 208.984375 337.222656 C 207.917969 335.628906 206.933594 333.984375 206.027344 332.292969 C 205.125 330.601562 204.304688 328.867188 203.570312 327.097656 C 202.832031 325.324219 202.1875 323.519531 201.628906 321.683594 C 201.070312 319.847656 200.605469 317.992188 200.230469 316.109375 C 199.851562 314.226562 199.570312 312.332031 199.382812 310.425781 C 199.191406 308.515625 199.097656 306.601562 199.09375 304.683594 L 199.09375 220.679688 C 199.09375 219.972656 199.128906 219.269531 199.199219 218.566406 C 199.269531 217.863281 199.375 217.164062 199.511719 216.472656 C 199.652344 215.777344 199.824219 215.09375 200.027344 214.417969 C 200.234375 213.742188 200.472656 213.078125 200.742188 212.421875 C 201.015625 211.769531 201.316406 211.132812 201.648438 210.507812 C 201.984375 209.886719 202.347656 209.28125 202.738281 208.695312 C 203.132812 208.105469 203.554688 207.539062 204 206.992188 C 204.449219 206.445312 204.925781 205.921875 205.421875 205.421875 C 205.921875 204.925781 206.445312 204.449219 206.992188 204 C 207.539062 203.554688 208.105469 203.132812 208.695312 202.738281 C 209.28125 202.347656 209.886719 201.984375 210.507812 201.648438 C 211.132812 201.316406 211.769531 201.015625 212.421875 200.742188 C 213.078125 200.472656 213.742188 200.234375 214.417969 200.027344 C 215.09375 199.824219 215.777344 199.652344 216.472656 199.511719 C 217.164062 199.375 217.863281 199.269531 218.566406 199.199219 C 219.269531 199.128906 219.972656 199.09375 220.679688 199.09375 L 304.683594 199.09375 C 306.601562 199.097656 308.515625 199.191406 310.425781 199.382812 C 312.332031 199.570312 314.226562 199.851562 316.109375 200.230469 C 317.992188 200.605469 319.847656 201.070312 321.683594 201.628906 C 323.519531 202.1875 325.324219 202.832031 327.097656 203.570312 C 328.867188 204.304688 330.601562 205.125 332.292969 206.027344 C 333.984375 206.933594 335.628906 207.917969 337.222656 208.984375 C 338.816406 210.050781 340.355469 211.191406 341.839844 212.410156 C 343.320312 213.628906 344.742188 214.914062 346.097656 216.269531 C 347.453125 217.628906 348.742188 219.046875 349.957031 220.53125 C 351.175781 222.011719 352.316406 223.550781 353.382812 225.148438 C 354.449219 226.742188 355.433594 228.386719 356.339844 230.078125 C 357.246094 231.769531 358.066406 233.5 358.800781 235.273438 C 359.535156 237.042969 360.183594 238.847656 360.738281 240.683594 C 361.296875 242.519531 361.765625 244.378906 362.140625 246.257812 C 362.515625 248.140625 362.796875 250.035156 362.988281 251.945312 C 363.175781 253.855469 363.273438 255.765625 363.273438 257.6875 Z M 363.273438 257.6875 "/></g><g clip-rule="nonzero" clip-path="url(#432a69f1ad)"><path style=" stroke:none;fill-rule:nonzero;fill:#0070f3;fill-opacity:1;" d="M 175.902344 70.316406 L 175.902344 154.316406 C 175.902344 155.023438 175.867188 155.730469 175.796875 156.433594 C 175.726562 157.136719 175.625 157.835938 175.484375 158.527344 C 175.347656 159.21875 175.175781 159.90625 174.96875 160.582031 C 174.761719 161.257812 174.527344 161.921875 174.253906 162.574219 C 173.984375 163.226562 173.679688 163.867188 173.347656 164.488281 C 173.015625 165.113281 172.652344 165.71875 172.257812 166.304688 C 171.867188 166.890625 171.445312 167.460938 170.996094 168.003906 C 170.546875 168.550781 170.074219 169.074219 169.574219 169.574219 C 169.074219 170.074219 168.550781 170.546875 168.003906 170.996094 C 167.460938 171.445312 166.890625 171.867188 166.304688 172.257812 C 165.71875 172.652344 165.113281 173.015625 164.488281 173.347656 C 163.867188 173.679688 163.226562 173.984375 162.574219 174.253906 C 161.921875 174.527344 161.257812 174.761719 160.582031 174.96875 C 159.90625 175.175781 159.21875 175.347656 158.527344 175.484375 C 157.835938 175.625 157.136719 175.726562 156.433594 175.796875 C 155.730469 175.867188 155.023438 175.902344 154.316406 175.902344 L 70.316406 175.902344 C 68.398438 175.902344 66.484375 175.808594 64.574219 175.617188 C 62.664062 175.425781 60.769531 175.144531 58.886719 174.769531 C 57.007812 174.394531 55.148438 173.925781 53.3125 173.371094 C 51.476562 172.8125 49.671875 172.164062 47.902344 171.429688 C 46.128906 170.695312 44.398438 169.875 42.707031 168.96875 C 41.015625 168.066406 39.371094 167.078125 37.777344 166.011719 C 36.179688 164.945312 34.640625 163.804688 33.160156 162.589844 C 31.675781 161.371094 30.257812 160.085938 28.902344 158.726562 C 27.542969 157.371094 26.257812 155.953125 25.039062 154.46875 C 23.824219 152.984375 22.679688 151.445312 21.613281 149.851562 C 20.546875 148.257812 19.5625 146.613281 18.65625 144.921875 C 17.753906 143.230469 16.933594 141.5 16.199219 139.726562 C 15.464844 137.953125 14.816406 136.148438 14.257812 134.316406 C 13.699219 132.480469 13.234375 130.621094 12.859375 128.738281 C 12.484375 126.859375 12.199219 124.960938 12.011719 123.054688 C 11.820312 121.144531 11.726562 119.230469 11.722656 117.3125 L 11.722656 70.316406 C 11.726562 68.398438 11.820312 66.484375 12.011719 64.574219 C 12.199219 62.664062 12.484375 60.769531 12.859375 58.886719 C 13.234375 57.007812 13.699219 55.148438 14.257812 53.3125 C 14.816406 51.476562 15.464844 49.671875 16.199219 47.902344 C 16.933594 46.128906 17.753906 44.398438 18.65625 42.707031 C 19.5625 41.015625 20.546875 39.371094 21.613281 37.777344 C 22.679688 36.179688 23.824219 34.640625 25.039062 33.160156 C 26.257812 31.675781 27.542969 30.257812 28.902344 28.902344 C 30.257812 27.542969 31.675781 26.257812 33.160156 25.039062 C 34.640625 23.824219 36.179688 22.679688 37.777344 21.613281 C 39.371094 20.546875 41.015625 19.5625 42.707031 18.65625 C 44.398438 17.753906 46.128906 16.933594 47.902344 16.199219 C 49.671875 15.464844 51.476562 14.816406 53.3125 14.257812 C 55.148438 13.699219 57.007812 13.234375 58.886719 12.859375 C 60.769531 12.484375 62.664062 12.199219 64.574219 12.011719 C 66.484375 11.820312 68.398438 11.726562 70.316406 11.722656 L 117.3125 11.722656 C 119.230469 11.726562 121.144531 11.820312 123.054688 12.011719 C 124.960938 12.199219 126.859375 12.484375 128.738281 12.859375 C 130.621094 13.234375 132.480469 13.699219 134.316406 14.257812 C 136.148438 14.816406 137.953125 15.464844 139.726562 16.199219 C 141.5 16.933594 143.230469 17.753906 144.921875 18.65625 C 146.613281 19.5625 148.257812 20.546875 149.851562 21.613281 C 151.445312 22.679688 152.984375 23.824219 154.46875 25.039062 C 155.949219 26.257812 157.371094 27.542969 158.726562 28.902344 C 160.085938 30.257812 161.371094 31.675781 162.589844 33.160156 C 163.804688 34.640625 164.945312 36.179688 166.011719 37.777344 C 167.078125 39.371094 168.066406 41.015625 168.96875 42.707031 C 169.875 44.398438 170.695312 46.128906 171.429688 47.902344 C 172.164062 49.671875 172.8125 51.476562 173.371094 53.3125 C 173.925781 55.148438 174.394531 57.007812 174.769531 58.886719 C 175.144531 60.769531 175.425781 62.664062 175.617188 64.574219 C 175.808594 66.484375 175.902344 68.398438 175.902344 70.316406 Z M 175.902344 70.316406 "/></g><g clip-rule="nonzero" clip-path="url(#9ed1cb8ca3)"><path style=" stroke:none;fill-rule:nonzero;fill:#0070f3;fill-opacity:1;" d="M 363.273438 70.316406 L 363.273438 117.3125 C 363.273438 119.230469 363.175781 121.144531 362.988281 123.054688 C 362.796875 124.960938 362.515625 126.859375 362.140625 128.738281 C 361.765625 130.621094 361.296875 132.480469 360.738281 134.316406 C 360.183594 136.148438 359.535156 137.953125 358.800781 139.726562 C 358.066406 141.5 357.246094 143.230469 356.339844 144.921875 C 355.433594 146.613281 354.449219 148.257812 353.382812 149.851562 C 352.316406 151.445312 351.175781 152.984375 349.957031 154.46875 C 348.742188 155.953125 347.453125 157.371094 346.097656 158.726562 C 344.742188 160.085938 343.320312 161.371094 341.839844 162.589844 C 340.355469 163.804688 338.816406 164.945312 337.222656 166.011719 C 335.628906 167.078125 333.984375 168.066406 332.292969 168.96875 C 330.601562 169.875 328.867188 170.695312 327.097656 171.429688 C 325.324219 172.164062 323.519531 172.8125 321.683594 173.371094 C 319.847656 173.925781 317.992188 174.394531 316.109375 174.769531 C 314.226562 175.144531 312.332031 175.425781 310.425781 175.617188 C 308.515625 175.808594 306.601562 175.902344 304.683594 175.902344 L 220.679688 175.902344 C 219.972656 175.902344 219.269531 175.867188 218.566406 175.796875 C 217.863281 175.726562 217.164062 175.625 216.472656 175.484375 C 215.777344 175.347656 215.09375 175.175781 214.417969 174.96875 C 213.742188 174.761719 213.078125 174.527344 212.421875 174.253906 C 211.769531 173.984375 211.132812 173.679688 210.507812 173.347656 C 209.886719 173.015625 209.28125 172.652344 208.695312 172.257812 C 208.105469 171.867188 207.539062 171.445312 206.992188 170.996094 C 206.445312 170.546875 205.921875 170.074219 205.421875 169.574219 C 204.925781 169.074219 204.449219 168.550781 204 168.003906 C 203.554688 167.460938 203.132812 166.890625 202.738281 166.304688 C 202.347656 165.71875 201.984375 165.113281 201.648438 164.488281 C 201.316406 163.867188 201.015625 163.226562 200.742188 162.574219 C 200.472656 161.921875 200.234375 161.257812 200.027344 160.582031 C 199.824219 159.90625 199.652344 159.21875 199.511719 158.527344 C 199.375 157.835938 199.269531 157.136719 199.199219 156.433594 C 199.128906 155.730469 199.09375 155.023438 199.09375 154.316406 L 199.09375 70.316406 C 199.097656 68.398438 199.191406 66.484375 199.382812 64.574219 C 199.570312 62.664062 199.851562 60.769531 200.230469 58.886719 C 200.605469 57.007812 201.070312 55.148438 201.628906 53.3125 C 202.1875 51.476562 202.832031 49.671875 203.570312 47.902344 C 204.304688 46.128906 205.125 44.398438 206.027344 42.707031 C 206.933594 41.015625 207.917969 39.371094 208.984375 37.777344 C 210.050781 36.179688 211.191406 34.640625 212.410156 33.160156 C 213.628906 31.675781 214.914062 30.257812 216.269531 28.902344 C 217.628906 27.542969 219.046875 26.257812 220.53125 25.039062 C 222.011719 23.824219 223.550781 22.679688 225.148438 21.613281 C 226.742188 20.546875 228.386719 19.5625 230.078125 18.65625 C 231.769531 17.753906 233.5 16.933594 235.273438 16.199219 C 237.042969 15.464844 238.847656 14.816406 240.683594 14.257812 C 242.519531 13.699219 244.378906 13.234375 246.257812 12.859375 C 248.140625 12.484375 250.035156 12.199219 251.945312 12.011719 C 253.855469 11.820312 255.765625 11.726562 257.6875 11.722656 L 304.683594 11.722656 C 306.601562 11.726562 308.515625 11.820312 310.425781 12.011719 C 312.332031 12.199219 314.226562 12.484375 316.109375 12.859375 C 317.992188 13.234375 319.847656 13.699219 321.683594 14.257812 C 323.519531 14.816406 325.324219 15.464844 327.097656 16.199219 C 328.867188 16.933594 330.601562 17.753906 332.292969 18.65625 C 333.984375 19.5625 335.628906 20.546875 337.222656 21.613281 C 338.816406 22.679688 340.355469 23.824219 341.839844 25.039062 C 343.320312 26.257812 344.742188 27.542969 346.097656 28.902344 C 347.453125 30.257812 348.742188 31.675781 349.957031 33.160156 C 351.175781 34.640625 352.316406 36.179688 353.382812 37.777344 C 354.449219 39.371094 355.433594 41.015625 356.339844 42.707031 C 357.246094 44.398438 358.066406 46.128906 358.800781 47.902344 C 359.535156 49.671875 360.183594 51.476562 360.738281 53.3125 C 361.296875 55.148438 361.765625 57.007812 362.140625 58.886719 C 362.515625 60.769531 362.796875 62.664062 362.988281 64.574219 C 363.175781 66.484375 363.273438 68.398438 363.273438 70.316406 Z M 363.273438 70.316406 "/></g></g></svg>