<svg xmlns="http://www.w3.org/2000/svg" xmlns:xlink="http://www.w3.org/1999/xlink" width="500" zoomAndPan="magnify" viewBox="0 0 375 374.999991" height="500" preserveAspectRatio="xMidYMid meet" version="1.2"><defs><clipPath id="ef57632bed"><path d="M 12.089844 13.332031 L 363 13.332031 L 363 361.332031 L 12.089844 361.332031 Z M 12.089844 13.332031 "/></clipPath></defs><g id="88064b7f89"><g clip-rule="nonzero" clip-path="url(#ef57632bed)"><path style=" stroke:none;fill-rule:nonzero;fill:#0070f3;fill-opacity:1;" d="M 329.683594 361.707031 L 42.398438 361.707031 C 41.402344 361.710938 40.40625 361.660156 39.414062 361.566406 C 38.417969 361.46875 37.433594 361.320312 36.453125 361.128906 C 35.476562 360.933594 34.507812 360.691406 33.554688 360.402344 C 32.597656 360.109375 31.660156 359.773438 30.738281 359.390625 C 29.816406 359.007812 28.917969 358.582031 28.039062 358.109375 C 27.160156 357.636719 26.304688 357.121094 25.476562 356.566406 C 24.648438 356.007812 23.847656 355.410156 23.078125 354.777344 C 22.308594 354.140625 21.574219 353.46875 20.871094 352.757812 C 20.167969 352.050781 19.503906 351.308594 18.875 350.535156 C 18.242188 349.761719 17.65625 348.957031 17.105469 348.125 C 16.554688 347.289062 16.046875 346.433594 15.582031 345.550781 C 15.117188 344.667969 14.699219 343.761719 14.324219 342.835938 C 13.945312 341.914062 13.617188 340.972656 13.335938 340.015625 C 13.054688 339.058594 12.820312 338.089844 12.632812 337.109375 C 12.445312 336.128906 12.308594 335.140625 12.222656 334.144531 C 12.132812 333.152344 12.09375 332.15625 12.101562 331.15625 L 14.4375 43.878906 C 14.445312 42.875 14.503906 41.875 14.613281 40.878906 C 14.71875 39.878906 14.875 38.890625 15.078125 37.910156 C 15.28125 36.925781 15.535156 35.957031 15.832031 35 C 16.132812 34.042969 16.476562 33.101562 16.867188 32.179688 C 17.253906 31.253906 17.691406 30.351562 18.167969 29.46875 C 18.644531 28.589844 19.167969 27.730469 19.726562 26.902344 C 20.289062 26.070312 20.890625 25.269531 21.53125 24.496094 C 22.171875 23.726562 22.847656 22.984375 23.558594 22.28125 C 24.269531 21.574219 25.015625 20.902344 25.792969 20.269531 C 26.570312 19.636719 27.375 19.042969 28.210938 18.488281 C 29.046875 17.933594 29.90625 17.417969 30.792969 16.949219 C 31.679688 16.476562 32.585938 16.050781 33.511719 15.667969 C 34.4375 15.285156 35.382812 14.949219 36.339844 14.65625 C 37.300781 14.367188 38.273438 14.125 39.257812 13.925781 C 40.242188 13.730469 41.230469 13.582031 42.230469 13.484375 C 43.226562 13.386719 44.226562 13.335938 45.230469 13.332031 L 332.515625 13.332031 C 333.511719 13.332031 334.507812 13.378906 335.5 13.476562 C 336.492188 13.574219 337.480469 13.71875 338.457031 13.914062 C 339.4375 14.109375 340.402344 14.351562 341.359375 14.640625 C 342.3125 14.929688 343.25 15.265625 344.171875 15.648438 C 345.09375 16.03125 345.996094 16.460938 346.875 16.933594 C 347.753906 17.402344 348.605469 17.917969 349.433594 18.476562 C 350.265625 19.03125 351.0625 19.628906 351.832031 20.261719 C 352.601562 20.898438 353.335938 21.570312 354.039062 22.28125 C 354.742188 22.988281 355.410156 23.730469 356.039062 24.503906 C 356.667969 25.277344 357.257812 26.082031 357.808594 26.914062 C 358.355469 27.746094 358.863281 28.605469 359.328125 29.488281 C 359.792969 30.371094 360.214844 31.273438 360.589844 32.199219 C 360.964844 33.125 361.292969 34.066406 361.578125 35.023438 C 361.859375 35.980469 362.09375 36.949219 362.28125 37.929688 C 362.464844 38.910156 362.601562 39.894531 362.691406 40.890625 C 362.78125 41.882812 362.820312 42.878906 362.8125 43.878906 L 360.476562 331.15625 C 360.46875 332.160156 360.410156 333.160156 360.300781 334.15625 C 360.195312 335.15625 360.039062 336.144531 359.835938 337.128906 C 359.632812 338.109375 359.378906 339.078125 359.082031 340.035156 C 358.785156 340.992188 358.441406 341.933594 358.050781 342.859375 C 357.660156 343.78125 357.226562 344.6875 356.746094 345.566406 C 356.269531 346.449219 355.75 347.304688 355.1875 348.136719 C 354.625 348.96875 354.023438 349.769531 353.386719 350.539062 C 352.746094 351.3125 352.070312 352.050781 351.355469 352.757812 C 350.644531 353.464844 349.902344 354.136719 349.125 354.769531 C 348.347656 355.402344 347.539062 355.996094 346.703125 356.550781 C 345.867188 357.105469 345.007812 357.621094 344.125 358.089844 C 343.238281 358.5625 342.332031 358.988281 341.40625 359.371094 C 340.476562 359.753906 339.535156 360.09375 338.574219 360.382812 C 337.613281 360.671875 336.644531 360.917969 335.660156 361.113281 C 334.675781 361.308594 333.683594 361.457031 332.6875 361.554688 C 331.6875 361.65625 330.6875 361.707031 329.683594 361.707031 Z M 329.683594 361.707031 "/></g><path style=" stroke:none;fill-rule:nonzero;fill:#ffffff;fill-opacity:1;" d="M 232.84375 140.476562 L 181.59375 152.84375 L 181.828125 123.84375 C 181.84375 122.21875 181.996094 120.609375 182.277344 119.007812 C 182.5625 117.410156 182.972656 115.847656 183.515625 114.316406 C 184.058594 112.785156 184.726562 111.3125 185.511719 109.890625 C 186.300781 108.472656 187.199219 107.125 188.210938 105.855469 C 189.21875 104.585938 190.328125 103.40625 191.535156 102.320312 C 192.738281 101.230469 194.027344 100.253906 195.394531 99.378906 C 196.765625 98.503906 198.195312 97.75 199.6875 97.113281 C 201.183594 96.480469 202.71875 95.96875 204.296875 95.589844 L 245.515625 85.640625 C 245.8125 85.570312 246.113281 85.515625 246.414062 85.476562 C 246.71875 85.4375 247.019531 85.417969 247.324219 85.414062 C 247.628906 85.410156 247.933594 85.421875 248.238281 85.453125 C 248.539062 85.484375 248.839844 85.53125 249.140625 85.597656 C 249.4375 85.664062 249.730469 85.746094 250.019531 85.84375 C 250.308594 85.941406 250.589844 86.054688 250.863281 86.1875 C 251.140625 86.316406 251.40625 86.460938 251.664062 86.625 C 251.925781 86.785156 252.171875 86.960938 252.414062 87.148438 C 252.652344 87.335938 252.878906 87.539062 253.09375 87.753906 C 253.3125 87.96875 253.515625 88.195312 253.703125 88.433594 C 253.894531 88.671875 254.070312 88.921875 254.234375 89.179688 C 254.394531 89.4375 254.542969 89.703125 254.671875 89.980469 C 254.804688 90.253906 254.921875 90.535156 255.019531 90.824219 C 255.121094 91.109375 255.203125 91.402344 255.269531 91.703125 C 255.335938 92 255.382812 92.300781 255.414062 92.601562 C 255.449219 92.90625 255.460938 93.210938 255.460938 93.515625 L 255.308594 112.222656 C 255.292969 113.847656 255.144531 115.457031 254.863281 117.054688 C 254.578125 118.65625 254.167969 120.21875 253.625 121.75 C 253.082031 123.28125 252.417969 124.753906 251.628906 126.175781 C 250.839844 127.597656 249.941406 128.941406 248.933594 130.210938 C 247.921875 131.484375 246.8125 132.660156 245.605469 133.75 C 244.402344 134.835938 243.113281 135.816406 241.746094 136.6875 C 240.375 137.5625 238.945312 138.316406 237.449219 138.953125 C 235.957031 139.589844 234.421875 140.097656 232.84375 140.476562 Z M 232.84375 140.476562 "/><path style=" stroke:none;fill-rule:nonzero;fill:#ffffff;fill-opacity:1;" d="M 200.5625 138.597656 L 199.519531 267.089844 C 198.910156 280.34375 182.535156 295.921875 162.648438 302.257812 C 142.433594 308.675781 126.0625 303.007812 126.171875 289.675781 C 126.277344 276.34375 142.824219 260.257812 163.042969 253.84375 C 168.816406 251.933594 174.738281 251.101562 180.8125 251.34375 L 181.730469 138.597656 Z M 200.5625 138.597656 "/></g></svg>