<svg xmlns="http://www.w3.org/2000/svg" xmlns:xlink="http://www.w3.org/1999/xlink" width="500" zoomAndPan="magnify" viewBox="0 0 375 374.999991" height="500" preserveAspectRatio="xMidYMid meet" version="1.2"><defs><clipPath id="01ed52d02b"><path d="M 106 5.847656 L 362 5.847656 L 362 262 L 106 262 Z M 106 5.847656 "/></clipPath></defs><g id="36e2fe8112"><path style=" stroke:none;fill-rule:nonzero;fill:#f20000;fill-opacity:1;" d="M 248.257812 256.988281 L 165.769531 267.480469 L 116.585938 273.753906 L 128.773438 247.886719 L 153.101562 196.292969 Z M 248.257812 256.988281 "/><path style=" stroke:none;fill-rule:nonzero;fill:#f20000;fill-opacity:1;" d="M 59.25 153.183594 L 38.824219 169.335938 L 38.898438 169.566406 C 13.308594 199.28125 26.542969 257.074219 59.609375 298.769531 C 92.714844 340.511719 153.089844 368.824219 180.933594 348.511719 L 180.976562 348.539062 L 181.046875 348.484375 C 181.058594 348.480469 181.070312 348.480469 181.078125 348.476562 L 181.070312 348.464844 L 201.414062 332.40625 C 202.886719 331.246094 203.136719 329.117188 201.972656 327.648438 L 166.539062 284.34375 C 165.375 282.878906 163.242188 282.628906 161.769531 283.789062 L 141.6875 299.640625 C 133.628906 306 122.28125 305.875 114.246094 299.480469 C 105.484375 292.5 97.234375 284.289062 89.792969 274.910156 C 82.320312 265.488281 76.1875 255.546875 71.386719 245.382812 C 67.003906 236.109375 69.488281 225.050781 77.542969 218.6875 L 97.523438 202.882812 C 98.992188 201.722656 99.242188 199.589844 98.078125 198.125 L 64.015625 153.738281 C 62.851562 152.269531 60.71875 152.019531 59.25 153.183594 Z M 59.25 153.183594 "/><path style=" stroke:none;fill-rule:nonzero;fill:#a30000;fill-opacity:0.5;" d="M 248.257812 256.988281 L 165.769531 267.480469 C 156.125 259.957031 143.9375 252.820312 128.773438 247.886719 L 153.101562 196.292969 Z M 248.257812 256.988281 "/><g clip-rule="nonzero" clip-path="url(#01ed52d02b)"><path style=" stroke:none;fill-rule:nonzero;fill:#f20000;fill-opacity:1;" d="M 361.964844 133.578125 C 361.964844 135.671875 361.914062 137.757812 361.8125 139.847656 C 361.710938 141.9375 361.554688 144.019531 361.351562 146.101562 C 361.144531 148.183594 360.886719 150.257812 360.582031 152.324219 C 360.273438 154.394531 359.914062 156.453125 359.507812 158.503906 C 359.097656 160.554688 358.640625 162.59375 358.132812 164.621094 C 357.621094 166.648438 357.0625 168.664062 356.457031 170.664062 C 355.847656 172.664062 355.191406 174.648438 354.484375 176.617188 C 353.78125 178.585938 353.027344 180.535156 352.226562 182.46875 C 351.425781 184.398438 350.574219 186.3125 349.679688 188.199219 C 348.785156 190.089844 347.84375 191.957031 346.855469 193.800781 C 345.871094 195.644531 344.835938 197.464844 343.761719 199.257812 C 342.683594 201.050781 341.5625 202.816406 340.402344 204.554688 C 339.238281 206.292969 338.03125 208.003906 336.785156 209.683594 C 335.535156 211.359375 334.25 213.007812 332.921875 214.625 C 331.589844 216.242188 330.222656 217.824219 328.816406 219.375 C 327.410156 220.921875 325.96875 222.4375 324.488281 223.914062 C 323.007812 225.394531 321.488281 226.835938 319.9375 228.238281 C 318.386719 229.640625 316.800781 231.007812 315.183594 232.332031 C 313.5625 233.660156 311.914062 234.945312 310.230469 236.191406 C 308.546875 237.4375 306.835938 238.640625 305.09375 239.800781 C 303.355469 240.964844 301.585938 242.082031 299.789062 243.15625 C 297.992188 244.230469 296.171875 245.261719 294.324219 246.246094 C 292.476562 247.234375 290.609375 248.171875 288.714844 249.066406 C 286.820312 249.960938 284.90625 250.808594 282.972656 251.609375 C 281.039062 252.40625 279.085938 253.160156 277.113281 253.863281 C 275.140625 254.570312 273.152344 255.222656 271.148438 255.832031 C 269.144531 256.4375 267.128906 256.996094 265.097656 257.503906 C 263.0625 258.011719 261.023438 258.46875 258.96875 258.878906 C 256.914062 259.285156 254.851562 259.644531 252.78125 259.949219 C 250.707031 260.257812 248.628906 260.511719 246.546875 260.71875 C 244.460938 260.921875 242.375 261.074219 240.28125 261.179688 C 238.191406 261.28125 236.097656 261.332031 234.003906 261.332031 C 231.910156 261.332031 229.816406 261.28125 227.722656 261.179688 C 225.632812 261.074219 223.546875 260.921875 221.460938 260.71875 C 219.375 260.511719 217.300781 260.257812 215.226562 259.949219 C 213.15625 259.644531 211.09375 259.285156 209.039062 258.878906 C 206.984375 258.46875 204.941406 258.011719 202.910156 257.503906 C 200.878906 256.996094 198.863281 256.4375 196.859375 255.832031 C 194.855469 255.222656 192.867188 254.570312 190.894531 253.863281 C 188.921875 253.160156 186.96875 252.40625 185.035156 251.609375 C 183.097656 250.808594 181.183594 249.960938 179.292969 249.066406 C 177.398438 248.171875 175.527344 247.234375 173.683594 246.246094 C 171.835938 245.261719 170.011719 244.230469 168.21875 243.15625 C 166.421875 242.082031 164.652344 240.964844 162.910156 239.800781 C 161.167969 238.640625 159.457031 237.4375 157.777344 236.191406 C 156.09375 234.945312 154.445312 233.660156 152.824219 232.332031 C 151.207031 231.007812 149.621094 229.640625 148.070312 228.238281 C 146.515625 226.835938 145 225.394531 143.519531 223.914062 C 142.039062 222.4375 140.59375 220.921875 139.1875 219.375 C 137.78125 217.824219 136.414062 216.242188 135.085938 214.625 C 133.757812 213.007812 132.46875 211.359375 131.222656 209.683594 C 129.976562 208.003906 128.769531 206.292969 127.605469 204.554688 C 126.441406 202.816406 125.324219 201.050781 124.246094 199.257812 C 123.167969 197.464844 122.136719 195.644531 121.148438 193.800781 C 120.164062 191.957031 119.222656 190.089844 118.328125 188.199219 C 117.429688 186.3125 116.582031 184.398438 115.78125 182.46875 C 114.980469 180.535156 114.226562 178.585938 113.519531 176.617188 C 112.816406 174.648438 112.160156 172.664062 111.550781 170.664062 C 110.941406 168.664062 110.382812 166.648438 109.875 164.621094 C 109.367188 162.59375 108.90625 160.554688 108.5 158.503906 C 108.089844 156.453125 107.734375 154.394531 107.425781 152.324219 C 107.117188 150.257812 106.863281 148.183594 106.65625 146.101562 C 106.453125 144.019531 106.296875 141.9375 106.195312 139.847656 C 106.09375 137.757812 106.039062 135.671875 106.039062 133.578125 C 106.039062 131.488281 106.09375 129.398438 106.195312 127.3125 C 106.296875 125.222656 106.453125 123.136719 106.65625 121.058594 C 106.863281 118.976562 107.117188 116.902344 107.425781 114.835938 C 107.734375 112.765625 108.089844 110.707031 108.5 108.65625 C 108.90625 106.605469 109.367188 104.566406 109.875 102.539062 C 110.382812 100.511719 110.941406 98.496094 111.550781 96.496094 C 112.160156 94.492188 112.816406 92.507812 113.519531 90.539062 C 114.226562 88.570312 114.980469 86.621094 115.78125 84.691406 C 116.582031 82.757812 117.429688 80.847656 118.328125 78.957031 C 119.222656 77.066406 120.164062 75.199219 121.148438 73.355469 C 122.136719 71.511719 123.167969 69.695312 124.246094 67.902344 C 125.324219 66.109375 126.441406 64.34375 127.605469 62.605469 C 128.769531 60.867188 129.976562 59.15625 131.222656 57.476562 C 132.46875 55.796875 133.757812 54.148438 135.085938 52.535156 C 136.414062 50.917969 137.78125 49.335938 139.1875 47.785156 C 140.59375 46.238281 142.039062 44.722656 143.519531 43.246094 C 145 41.765625 146.515625 40.324219 148.070312 38.921875 C 149.621094 37.515625 151.207031 36.152344 152.824219 34.824219 C 154.445312 33.5 156.09375 32.210938 157.777344 30.96875 C 159.457031 29.722656 161.167969 28.519531 162.910156 27.355469 C 164.652344 26.195312 166.421875 25.078125 168.21875 24.003906 C 170.011719 22.925781 171.835938 21.898438 173.683594 20.910156 C 175.527344 19.925781 177.398438 18.984375 179.292969 18.09375 C 181.183594 17.199219 183.097656 16.351562 185.035156 15.550781 C 186.96875 14.75 188.921875 14 190.894531 13.292969 C 192.867188 12.589844 194.855469 11.933594 196.859375 11.328125 C 198.863281 10.71875 200.878906 10.164062 202.910156 9.65625 C 204.941406 9.148438 206.984375 8.6875 209.039062 8.28125 C 211.09375 7.875 213.15625 7.515625 215.226562 7.210938 C 217.300781 6.902344 219.375 6.648438 221.460938 6.441406 C 223.546875 6.238281 225.632812 6.082031 227.722656 5.980469 C 229.816406 5.878906 231.910156 5.828125 234.003906 5.828125 C 236.097656 5.828125 238.191406 5.878906 240.28125 5.980469 C 242.375 6.082031 244.460938 6.238281 246.546875 6.441406 C 248.628906 6.648438 250.707031 6.902344 252.78125 7.210938 C 254.851562 7.515625 256.914062 7.875 258.96875 8.28125 C 261.023438 8.6875 263.0625 9.148438 265.097656 9.65625 C 267.128906 10.164062 269.144531 10.71875 271.148438 11.328125 C 273.152344 11.933594 275.140625 12.589844 277.113281 13.292969 C 279.085938 14 281.039062 14.75 282.972656 15.550781 C 284.90625 16.351562 286.820312 17.199219 288.714844 18.09375 C 290.609375 18.984375 292.476562 19.925781 294.324219 20.910156 C 296.171875 21.898438 297.992188 22.925781 299.789062 24.003906 C 301.585938 25.078125 303.355469 26.195312 305.09375 27.355469 C 306.835938 28.519531 308.546875 29.722656 310.230469 30.96875 C 311.914062 32.210938 313.5625 33.5 315.183594 34.824219 C 316.800781 36.152344 318.386719 37.515625 319.9375 38.921875 C 321.488281 40.324219 323.007812 41.765625 324.488281 43.246094 C 325.96875 44.722656 327.410156 46.238281 328.816406 47.785156 C 330.222656 49.335938 331.589844 50.917969 332.921875 52.535156 C 334.25 54.148438 335.535156 55.796875 336.785156 57.476562 C 338.03125 59.15625 339.238281 60.867188 340.402344 62.605469 C 341.5625 64.34375 342.683594 66.109375 343.761719 67.902344 C 344.835938 69.695312 345.871094 71.511719 346.855469 73.355469 C 347.84375 75.199219 348.785156 77.066406 349.679688 78.957031 C 350.574219 80.847656 351.425781 82.757812 352.226562 84.691406 C 353.027344 86.621094 353.78125 88.570312 354.484375 90.539062 C 355.191406 92.507812 355.847656 94.492188 356.457031 96.496094 C 357.0625 98.496094 357.621094 100.511719 358.132812 102.539062 C 358.640625 104.566406 359.097656 106.605469 359.507812 108.65625 C 359.914062 110.707031 360.273438 112.765625 360.582031 114.835938 C 360.886719 116.902344 361.144531 118.976562 361.351562 121.058594 C 361.554688 123.136719 361.710938 125.222656 361.8125 127.3125 C 361.914062 129.398438 361.964844 131.488281 361.964844 133.578125 Z M 361.964844 133.578125 "/></g><path style=" stroke:none;fill-rule:nonzero;fill:#ffffff;fill-opacity:1;" d="M 181.449219 149.984375 C 181.449219 147.210938 180.472656 145.082031 178.511719 143.597656 C 176.550781 142.117188 173.023438 140.550781 167.925781 138.902344 C 162.828125 137.253906 158.796875 135.632812 155.824219 134.035156 C 147.71875 129.664062 143.671875 123.777344 143.671875 116.375 C 143.671875 112.527344 144.753906 109.09375 146.929688 106.078125 C 149.101562 103.058594 152.222656 100.703125 156.289062 99.007812 C 160.355469 97.3125 164.921875 96.464844 169.984375 96.464844 C 175.078125 96.464844 179.621094 97.386719 183.605469 99.226562 C 187.589844 101.070312 190.6875 103.671875 192.890625 107.03125 C 195.097656 110.390625 196.199219 114.207031 196.199219 118.480469 L 181.5 118.480469 C 181.5 115.21875 180.46875 112.679688 178.410156 110.871094 C 176.351562 109.0625 173.460938 108.15625 169.738281 108.15625 C 166.144531 108.15625 163.351562 108.914062 161.359375 110.429688 C 159.367188 111.945312 158.371094 113.945312 158.371094 116.421875 C 158.371094 118.738281 159.539062 120.679688 161.875 122.246094 C 164.210938 123.8125 167.648438 125.277344 172.1875 126.648438 C 180.550781 129.160156 186.644531 132.273438 190.464844 135.992188 C 194.289062 139.707031 196.199219 144.339844 196.199219 149.882812 C 196.199219 156.046875 193.863281 160.882812 189.191406 164.386719 C 184.519531 167.894531 178.230469 169.648438 170.324219 169.648438 C 164.835938 169.648438 159.839844 168.644531 155.332031 166.640625 C 150.824219 164.632812 147.382812 161.886719 145.015625 158.394531 C 142.648438 154.90625 141.464844 150.863281 141.464844 146.265625 L 156.214844 146.265625 C 156.214844 154.125 160.917969 158.054688 170.324219 158.054688 C 173.820312 158.054688 176.550781 157.34375 178.507812 155.925781 C 180.46875 154.507812 181.449219 152.527344 181.449219 149.984375 Z M 181.449219 149.984375 "/><path style=" stroke:none;fill-rule:nonzero;fill:#ffffff;fill-opacity:1;" d="M 264.753906 134.671875 C 264.753906 141.683594 263.511719 147.832031 261.027344 153.113281 C 258.546875 158.398438 254.992188 162.476562 250.371094 165.34375 C 245.746094 168.214844 240.449219 169.648438 234.46875 169.648438 C 228.554688 169.648438 223.28125 168.230469 218.640625 165.394531 C 214.003906 162.554688 210.410156 158.503906 207.863281 153.238281 C 205.3125 147.96875 204.023438 141.910156 203.992188 135.0625 L 203.992188 131.542969 C 203.992188 124.53125 205.257812 118.355469 207.789062 113.023438 C 210.320312 107.691406 213.898438 103.597656 218.519531 100.746094 C 223.144531 97.890625 228.425781 96.464844 234.371094 96.464844 C 240.316406 96.464844 245.601562 97.890625 250.222656 100.746094 C 254.847656 103.597656 258.421875 107.691406 260.957031 113.023438 C 263.488281 118.355469 264.753906 124.511719 264.753906 131.492188 Z M 249.855469 131.441406 C 249.855469 123.972656 248.515625 118.300781 245.839844 114.417969 C 243.160156 110.539062 239.335938 108.597656 234.371094 108.597656 C 229.4375 108.597656 225.632812 110.511719 222.953125 114.34375 C 220.273438 118.175781 218.917969 123.796875 218.886719 131.199219 L 218.886719 134.671875 C 218.886719 141.945312 220.226562 147.585938 222.90625 151.597656 C 225.585938 155.609375 229.4375 157.617188 234.46875 157.617188 C 239.402344 157.617188 243.191406 155.683594 245.835938 151.816406 C 248.484375 147.953125 249.824219 142.320312 249.855469 134.917969 Z M 249.855469 131.441406 "/><path style=" stroke:none;fill-rule:nonzero;fill:#ffffff;fill-opacity:1;" d="M 312.429688 149.984375 C 312.429688 147.210938 311.449219 145.082031 309.492188 143.597656 C 307.53125 142.117188 304.003906 140.550781 298.90625 138.902344 C 293.808594 137.253906 289.777344 135.632812 286.804688 134.035156 C 278.703125 129.664062 274.652344 123.777344 274.652344 116.375 C 274.652344 112.527344 275.734375 109.09375 277.910156 106.078125 C 280.082031 103.058594 283.199219 100.703125 287.269531 99.007812 C 291.335938 97.3125 295.898438 96.464844 300.964844 96.464844 C 306.058594 96.464844 310.601562 97.386719 314.585938 99.226562 C 318.570312 101.070312 321.664062 103.671875 323.871094 107.03125 C 326.074219 110.390625 327.179688 114.207031 327.179688 118.480469 L 312.480469 118.480469 C 312.480469 115.21875 311.449219 112.679688 309.390625 110.871094 C 307.332031 109.0625 304.441406 108.15625 300.71875 108.15625 C 297.125 108.15625 294.332031 108.914062 292.339844 110.429688 C 290.34375 111.945312 289.347656 113.945312 289.347656 116.421875 C 289.347656 118.738281 290.519531 120.679688 292.855469 122.246094 C 295.191406 123.8125 298.628906 125.277344 303.167969 126.648438 C 311.53125 129.160156 317.625 132.273438 321.445312 135.992188 C 325.265625 139.707031 327.179688 144.339844 327.179688 149.882812 C 327.179688 156.046875 324.84375 160.882812 320.171875 164.386719 C 315.5 167.894531 309.210938 169.648438 301.304688 169.648438 C 295.816406 169.648438 290.820312 168.644531 286.3125 166.640625 C 281.800781 164.632812 278.363281 161.886719 275.996094 158.394531 C 273.628906 154.90625 272.445312 150.863281 272.445312 146.265625 L 287.191406 146.265625 C 287.191406 154.125 291.898438 158.054688 301.304688 158.054688 C 304.800781 158.054688 307.527344 157.34375 309.488281 155.925781 C 311.449219 154.507812 312.429688 152.527344 312.429688 149.984375 Z M 312.429688 149.984375 "/><path style=" stroke:none;fill-rule:nonzero;fill:#ffffff;fill-opacity:1;" d="M 181.449219 149.984375 C 181.449219 147.210938 180.472656 145.082031 178.511719 143.597656 C 176.550781 142.117188 173.023438 140.550781 167.925781 138.902344 C 162.828125 137.253906 158.796875 135.632812 155.824219 134.035156 C 147.71875 129.664062 143.671875 123.777344 143.671875 116.375 C 143.671875 112.527344 144.753906 109.09375 146.929688 106.078125 C 149.101562 103.058594 152.222656 100.703125 156.289062 99.007812 C 160.355469 97.3125 164.921875 96.464844 169.984375 96.464844 C 175.078125 96.464844 179.621094 97.386719 183.605469 99.226562 C 187.589844 101.070312 190.6875 103.671875 192.890625 107.03125 C 195.097656 110.390625 196.199219 114.207031 196.199219 118.480469 L 181.5 118.480469 C 181.5 115.21875 180.46875 112.679688 178.410156 110.871094 C 176.351562 109.0625 173.460938 108.15625 169.738281 108.15625 C 166.144531 108.15625 163.351562 108.914062 161.359375 110.429688 C 159.367188 111.945312 158.371094 113.945312 158.371094 116.421875 C 158.371094 118.738281 159.539062 120.679688 161.875 122.246094 C 164.210938 123.8125 167.648438 125.277344 172.1875 126.648438 C 180.550781 129.160156 186.644531 132.273438 190.464844 135.992188 C 194.289062 139.707031 196.199219 144.339844 196.199219 149.882812 C 196.199219 156.046875 193.863281 160.882812 189.191406 164.386719 C 184.519531 167.894531 178.230469 169.648438 170.324219 169.648438 C 164.835938 169.648438 159.839844 168.644531 155.332031 166.640625 C 150.824219 164.632812 147.382812 161.886719 145.015625 158.394531 C 142.648438 154.90625 141.464844 150.863281 141.464844 146.265625 L 156.214844 146.265625 C 156.214844 154.125 160.917969 158.054688 170.324219 158.054688 C 173.820312 158.054688 176.550781 157.34375 178.507812 155.925781 C 180.46875 154.507812 181.449219 152.527344 181.449219 149.984375 Z M 181.449219 149.984375 "/><path style=" stroke:none;fill-rule:nonzero;fill:#ffffff;fill-opacity:1;" d="M 264.753906 134.671875 C 264.753906 141.683594 263.511719 147.832031 261.027344 153.113281 C 258.546875 158.398438 254.992188 162.476562 250.371094 165.34375 C 245.746094 168.214844 240.449219 169.648438 234.46875 169.648438 C 228.554688 169.648438 223.28125 168.230469 218.640625 165.394531 C 214.003906 162.554688 210.410156 158.503906 207.863281 153.238281 C 205.3125 147.96875 204.023438 141.910156 203.992188 135.0625 L 203.992188 131.542969 C 203.992188 124.53125 205.257812 118.355469 207.789062 113.023438 C 210.320312 107.691406 213.898438 103.597656 218.519531 100.746094 C 223.144531 97.890625 228.425781 96.464844 234.371094 96.464844 C 240.316406 96.464844 245.601562 97.890625 250.222656 100.746094 C 254.847656 103.597656 258.421875 107.691406 260.957031 113.023438 C 263.488281 118.355469 264.753906 124.511719 264.753906 131.492188 Z M 249.855469 131.441406 C 249.855469 123.972656 248.515625 118.300781 245.839844 114.417969 C 243.160156 110.539062 239.335938 108.597656 234.371094 108.597656 C 229.4375 108.597656 225.632812 110.511719 222.953125 114.34375 C 220.273438 118.175781 218.917969 123.796875 218.886719 131.199219 L 218.886719 134.671875 C 218.886719 141.945312 220.226562 147.585938 222.90625 151.597656 C 225.585938 155.609375 229.4375 157.617188 234.46875 157.617188 C 239.402344 157.617188 243.191406 155.683594 245.835938 151.816406 C 248.484375 147.953125 249.824219 142.320312 249.855469 134.917969 Z M 249.855469 131.441406 "/><path style=" stroke:none;fill-rule:nonzero;fill:#ffffff;fill-opacity:1;" d="M 312.429688 149.984375 C 312.429688 147.210938 311.449219 145.082031 309.492188 143.597656 C 307.53125 142.117188 304.003906 140.550781 298.90625 138.902344 C 293.808594 137.253906 289.777344 135.632812 286.804688 134.035156 C 278.703125 129.664062 274.652344 123.777344 274.652344 116.375 C 274.652344 112.527344 275.734375 109.09375 277.910156 106.078125 C 280.082031 103.058594 283.199219 100.703125 287.269531 99.007812 C 291.335938 97.3125 295.898438 96.464844 300.964844 96.464844 C 306.058594 96.464844 310.601562 97.386719 314.585938 99.226562 C 318.570312 101.070312 321.664062 103.671875 323.871094 107.03125 C 326.074219 110.390625 327.179688 114.207031 327.179688 118.480469 L 312.480469 118.480469 C 312.480469 115.21875 311.449219 112.679688 309.390625 110.871094 C 307.332031 109.0625 304.441406 108.15625 300.71875 108.15625 C 297.125 108.15625 294.332031 108.914062 292.339844 110.429688 C 290.34375 111.945312 289.347656 113.945312 289.347656 116.421875 C 289.347656 118.738281 290.519531 120.679688 292.855469 122.246094 C 295.191406 123.8125 298.628906 125.277344 303.167969 126.648438 C 311.53125 129.160156 317.625 132.273438 321.445312 135.992188 C 325.265625 139.707031 327.179688 144.339844 327.179688 149.882812 C 327.179688 156.046875 324.84375 160.882812 320.171875 164.386719 C 315.5 167.894531 309.210938 169.648438 301.304688 169.648438 C 295.816406 169.648438 290.820312 168.644531 286.3125 166.640625 C 281.800781 164.632812 278.363281 161.886719 275.996094 158.394531 C 273.628906 154.90625 272.445312 150.863281 272.445312 146.265625 L 287.191406 146.265625 C 287.191406 154.125 291.898438 158.054688 301.304688 158.054688 C 304.800781 158.054688 307.527344 157.34375 309.488281 155.925781 C 311.449219 154.507812 312.429688 152.527344 312.429688 149.984375 Z M 312.429688 149.984375 "/><path style=" stroke:none;fill-rule:nonzero;fill:#ffffff;fill-opacity:0.3;" d="M 311.21875 40.128906 C 309.519531 45.375 294.398438 45.191406 277.445312 39.714844 C 260.492188 34.242188 248.125 25.550781 249.824219 20.308594 C 251.519531 15.0625 266.644531 15.25 283.597656 20.722656 C 300.550781 26.195312 312.917969 34.886719 311.21875 40.128906 Z M 311.21875 40.128906 "/><path style=" stroke:none;fill-rule:nonzero;fill:#ffffff;fill-opacity:0.3;" d="M 323.550781 52.359375 C 322.488281 53.9375 318.941406 53.414062 315.628906 51.191406 C 312.316406 48.964844 310.496094 45.882812 311.558594 44.304688 C 312.625 42.726562 316.167969 43.25 319.480469 45.472656 C 322.792969 47.695312 324.613281 50.777344 323.550781 52.359375 Z M 323.550781 52.359375 "/></g></svg>