<svg xmlns="http://www.w3.org/2000/svg" xmlns:xlink="http://www.w3.org/1999/xlink" width="500" zoomAndPan="magnify" viewBox="0 0 375 374.999991" height="500" preserveAspectRatio="xMidYMid meet" version="1.2"><defs><clipPath id="10021398bc"><path d="M 11.570312 39.5 L 363.320312 39.5 L 363.320312 236 L 11.570312 236 Z M 11.570312 39.5 "/></clipPath><clipPath id="5f12079c46"><path d="M 11.570312 223 L 363.320312 223 L 363.320312 278 L 11.570312 278 Z M 11.570312 223 "/></clipPath><clipPath id="5afb216693"><path d="M 11.570312 231 L 363.320312 231 L 363.320312 270 L 11.570312 270 Z M 11.570312 231 "/></clipPath><clipPath id="1b3844cd19"><path d="M 171 207 L 204 207 L 204 241 L 171 241 Z M 171 207 "/></clipPath><clipPath id="25f59e2a08"><path d="M 193.003906 208.4375 C 201.445312 211.539062 205.808594 220.90625 202.785156 229.355469 C 199.6875 237.808594 190.332031 242.175781 181.890625 239.148438 C 173.449219 236.046875 169.085938 226.679688 172.109375 218.226562 C 175.207031 209.707031 184.5625 205.339844 193.003906 208.4375 Z M 193.003906 208.4375 "/></clipPath><linearGradient x1="-1388.922788" gradientTransform="matrix(0.2406,-0.661852,0.661078,0.240881,275.818148,-759.960492)" y1="359.63599" x2="-1321.923935" gradientUnits="userSpaceOnUse" y2="359.63599" id="c8ac472680"><stop style="stop-color:#000000;stop-opacity:1;" offset="0"/><stop style="stop-color:#000000;stop-opacity:1;" offset="0.125"/><stop style="stop-color:#000000;stop-opacity:1;" offset="0.1875"/><stop style="stop-color:#010101;stop-opacity:1;" offset="0.21875"/><stop style="stop-color:#020202;stop-opacity:1;" offset="0.25"/><stop style="stop-color:#020202;stop-opacity:1;" offset="0.28125"/><stop style="stop-color:#030303;stop-opacity:1;" offset="0.3125"/><stop style="stop-color:#030303;stop-opacity:1;" offset="0.34375"/><stop style="stop-color:#040404;stop-opacity:1;" offset="0.359375"/><stop style="stop-color:#040404;stop-opacity:1;" offset="0.375"/><stop style="stop-color:#050505;stop-opacity:1;" offset="0.390625"/><stop style="stop-color:#060606;stop-opacity:1;" offset="0.40625"/><stop style="stop-color:#070707;stop-opacity:1;" offset="0.421875"/><stop style="stop-color:#080808;stop-opacity:1;" offset="0.4375"/><stop style="stop-color:#090909;stop-opacity:1;" offset="0.453125"/><stop style="stop-color:#0a0a0a;stop-opacity:1;" offset="0.46875"/><stop style="stop-color:#0a0a0a;stop-opacity:1;" offset="0.484375"/><stop style="stop-color:#0b0b0b;stop-opacity:1;" offset="0.5"/><stop style="stop-color:#0c0c0c;stop-opacity:1;" offset="0.515625"/><stop style="stop-color:#0d0d0d;stop-opacity:1;" offset="0.53125"/><stop style="stop-color:#0e0e0e;stop-opacity:1;" offset="0.539063"/><stop style="stop-color:#0e0e0e;stop-opacity:1;" offset="0.546875"/><stop style="stop-color:#0f0f0f;stop-opacity:1;" offset="0.554688"/><stop style="stop-color:#101010;stop-opacity:1;" offset="0.5625"/><stop style="stop-color:#111111;stop-opacity:1;" offset="0.570313"/><stop style="stop-color:#111111;stop-opacity:1;" offset="0.578125"/><stop style="stop-color:#121212;stop-opacity:1;" offset="0.585938"/><stop style="stop-color:#131313;stop-opacity:1;" offset="0.59375"/><stop style="stop-color:#141414;stop-opacity:1;" offset="0.601563"/><stop style="stop-color:#151515;stop-opacity:1;" offset="0.609375"/><stop style="stop-color:#161616;stop-opacity:1;" offset="0.617188"/><stop style="stop-color:#161616;stop-opacity:1;" offset="0.625"/><stop style="stop-color:#171717;stop-opacity:1;" offset="0.632813"/><stop style="stop-color:#181818;stop-opacity:1;" offset="0.640625"/><stop style="stop-color:#191919;stop-opacity:1;" offset="0.648438"/><stop style="stop-color:#1a1a1a;stop-opacity:1;" offset="0.65625"/><stop style="stop-color:#1b1b1b;stop-opacity:1;" offset="0.664063"/><stop style="stop-color:#1c1c1c;stop-opacity:1;" offset="0.671875"/><stop style="stop-color:#1c1c1c;stop-opacity:1;" offset="0.679688"/><stop style="stop-color:#1d1d1d;stop-opacity:1;" offset="0.6875"/><stop style="stop-color:#1e1e1e;stop-opacity:1;" offset="0.695313"/><stop style="stop-color:#1f1f1f;stop-opacity:1;" offset="0.703125"/><stop style="stop-color:#202020;stop-opacity:1;" offset="0.710938"/><stop style="stop-color:#212121;stop-opacity:1;" offset="0.71875"/><stop style="stop-color:#222222;stop-opacity:1;" offset="0.722656"/><stop style="stop-color:#222222;stop-opacity:1;" offset="0.726563"/><stop style="stop-color:#232323;stop-opacity:1;" offset="0.730469"/><stop style="stop-color:#232323;stop-opacity:1;" offset="0.734375"/><stop style="stop-color:#242424;stop-opacity:1;" offset="0.738281"/><stop style="stop-color:#242424;stop-opacity:1;" offset="0.742188"/><stop style="stop-color:#252525;stop-opacity:1;" offset="0.746094"/><stop style="stop-color:#262626;stop-opacity:1;" offset="0.75"/><stop style="stop-color:#262626;stop-opacity:1;" offset="0.753906"/><stop style="stop-color:#272727;stop-opacity:1;" offset="0.757812"/><stop style="stop-color:#272727;stop-opacity:1;" offset="0.761719"/><stop style="stop-color:#282828;stop-opacity:1;" offset="0.765625"/><stop style="stop-color:#282828;stop-opacity:1;" offset="0.769531"/><stop style="stop-color:#292929;stop-opacity:1;" offset="0.773437"/><stop style="stop-color:#292929;stop-opacity:1;" offset="0.777344"/><stop style="stop-color:#2a2a2a;stop-opacity:1;" offset="0.78125"/><stop style="stop-color:#2a2a2a;stop-opacity:1;" offset="0.785156"/><stop style="stop-color:#2b2b2b;stop-opacity:1;" offset="0.789063"/><stop style="stop-color:#2c2c2c;stop-opacity:1;" offset="0.792969"/><stop style="stop-color:#2c2c2c;stop-opacity:1;" offset="0.796875"/><stop style="stop-color:#2d2d2d;stop-opacity:1;" offset="0.800781"/><stop style="stop-color:#2d2d2d;stop-opacity:1;" offset="0.804688"/><stop style="stop-color:#2e2e2e;stop-opacity:1;" offset="0.808594"/><stop style="stop-color:#2e2e2e;stop-opacity:1;" offset="0.8125"/><stop style="stop-color:#2f2f2f;stop-opacity:1;" offset="0.816406"/><stop style="stop-color:#2f2f2f;stop-opacity:1;" offset="0.820313"/><stop style="stop-color:#303030;stop-opacity:1;" offset="0.824219"/><stop style="stop-color:#313131;stop-opacity:1;" offset="0.828125"/><stop style="stop-color:#313131;stop-opacity:1;" offset="0.832031"/><stop style="stop-color:#323232;stop-opacity:1;" offset="0.835938"/><stop style="stop-color:#323232;stop-opacity:1;" offset="0.839844"/><stop style="stop-color:#333333;stop-opacity:1;" offset="0.84375"/><stop style="stop-color:#333333;stop-opacity:1;" offset="0.875"/><stop style="stop-color:#333333;stop-opacity:1;" offset="1"/></linearGradient><clipPath id="2bde63b0fd"><path d="M 11.570312 254 L 363.320312 254 L 363.320312 335.75 L 11.570312 335.75 Z M 11.570312 254 "/></clipPath></defs><g id="22416e4bf9"><path style=" stroke:none;fill-rule:nonzero;fill:#f2f2f2;fill-opacity:1;" d="M 187.445312 91.449219 C 258.570312 91.449219 316.257812 155.753906 316.257812 235.0625 L 58.636719 235.0625 C 58.636719 155.753906 116.324219 91.449219 187.445312 91.449219 Z M 187.445312 91.449219 "/><path style=" stroke:none;fill-rule:nonzero;fill:#e6e6e6;fill-opacity:1;" d="M 100.847656 230.132812 L 100.847656 215.480469 C 100.847656 192.308594 109.851562 170.546875 126.242188 154.136719 C 142.632812 137.722656 164.371094 128.707031 187.515625 128.707031 C 210.664062 128.707031 232.402344 137.722656 248.792969 154.136719 C 265.183594 170.546875 274.1875 192.308594 274.1875 215.480469 L 274.1875 230.132812 L 358.539062 230.132812 L 358.539062 215.480469 C 358.539062 192.378906 354.035156 169.980469 345.101562 148.851562 C 336.519531 128.425781 324.136719 110.183594 308.449219 94.480469 C 292.761719 78.773438 274.46875 66.445312 254.140625 57.785156 C 233.035156 48.839844 210.664062 44.332031 187.585938 44.332031 C 164.511719 44.332031 142.140625 48.839844 121.035156 57.785156 C 100.636719 66.375 82.414062 78.773438 66.726562 94.480469 C 50.828125 110.183594 38.515625 128.496094 29.863281 148.851562 C 20.929688 169.980469 16.425781 192.378906 16.425781 215.480469 L 16.425781 230.132812 Z M 100.847656 230.132812 "/><g clip-rule="nonzero" clip-path="url(#10021398bc)"><path style=" stroke:none;fill-rule:nonzero;fill:#cccccc;fill-opacity:1;" d="M 11.570312 215.550781 C 11.570312 191.816406 16.214844 168.714844 25.429688 147.019531 C 34.296875 126.03125 46.957031 107.226562 63.066406 91.097656 C 79.179688 74.96875 98.03125 62.222656 118.925781 53.417969 C 140.664062 44.191406 163.667969 39.542969 187.375 39.542969 C 211.085938 39.542969 234.160156 44.191406 255.828125 53.417969 C 276.792969 62.292969 295.574219 74.96875 311.683594 91.097656 C 327.796875 107.226562 340.527344 126.101562 349.324219 147.019531 C 358.539062 168.785156 363.179688 191.816406 363.179688 215.550781 L 363.179688 235.0625 L 269.195312 235.0625 L 269.195312 215.550781 C 269.195312 193.71875 260.679688 173.152344 245.273438 157.65625 C 229.796875 142.160156 209.324219 133.710938 187.445312 133.710938 C 165.566406 133.710938 145.097656 142.230469 129.621094 157.65625 C 114.140625 173.152344 105.699219 193.648438 105.699219 215.550781 L 105.699219 235.0625 L 11.570312 235.0625 Z M 95.921875 215.550781 C 95.921875 191.113281 105.417969 168.082031 122.726562 150.753906 C 140.03125 133.429688 162.964844 123.917969 187.445312 123.917969 C 211.859375 123.917969 234.863281 133.429688 252.167969 150.753906 C 269.476562 168.082031 278.972656 191.042969 278.972656 215.550781 L 278.972656 225.273438 L 353.613281 225.273438 L 353.613281 215.550781 C 353.613281 193.085938 349.183594 171.320312 340.527344 150.824219 C 332.15625 131.03125 320.199219 113.214844 304.929688 98 C 289.664062 82.644531 271.9375 70.671875 252.097656 62.292969 C 231.625 53.628906 209.816406 49.191406 187.445312 49.191406 C 165.003906 49.191406 143.265625 53.628906 122.796875 62.292969 C 102.957031 70.671875 85.226562 82.644531 69.960938 97.929688 C 54.695312 113.214844 42.738281 130.960938 34.367188 150.753906 C 25.710938 171.25 21.28125 193.085938 21.28125 215.480469 L 21.28125 225.203125 L 95.921875 225.203125 Z M 95.921875 215.550781 "/></g><path style=" stroke:none;fill-rule:nonzero;fill:#ffffff;fill-opacity:1;" d="M 31.058594 215.550781 L 86.214844 215.550781 C 86.214844 188.507812 96.765625 163.007812 115.832031 143.851562 C 134.964844 124.695312 160.363281 114.199219 187.445312 114.199219 C 214.460938 114.199219 239.929688 124.765625 259.0625 143.851562 C 278.199219 163.007812 288.679688 188.4375 288.679688 215.550781 L 343.835938 215.550781 C 343.835938 194.421875 339.683594 173.925781 331.523438 154.628906 C 323.644531 135.964844 312.386719 119.199219 298.039062 104.832031 C 283.6875 90.464844 266.941406 79.125 248.300781 71.234375 C 229.023438 63.066406 208.550781 58.980469 187.445312 58.980469 C 166.34375 58.980469 145.871094 63.136719 126.59375 71.304688 C 107.953125 79.125 91.207031 90.464844 76.855469 104.832031 C 62.503906 119.199219 51.25 135.964844 43.371094 154.628906 C 35.210938 173.925781 31.058594 194.421875 31.058594 215.550781 Z M 31.058594 215.550781 "/><path style=" stroke:none;fill-rule:nonzero;fill:#6f9c38;fill-opacity:1;" d="M 57.019531 129.132812 L 101.691406 161.671875 C 91.628906 177.660156 86.214844 196.183594 86.214844 215.621094 L 31.058594 215.621094 C 31.058594 194.492188 35.210938 173.996094 43.371094 154.699219 C 47.097656 145.613281 51.671875 137.160156 57.019531 129.132812 Z M 57.019531 129.132812 "/><path style=" stroke:none;fill-rule:nonzero;fill:#8ac245;fill-opacity:1;" d="M 81.429688 210.691406 C 82.203125 193.859375 86.917969 177.449219 95.21875 162.9375 L 58.285156 136.105469 C 54.273438 142.585938 50.757812 149.488281 47.800781 156.460938 C 40.554688 173.644531 36.546875 191.886719 35.984375 210.621094 L 81.429688 210.621094 Z M 81.429688 210.691406 "/><path style=" stroke:none;fill-rule:nonzero;fill:#bf3429;fill-opacity:1;" d="M 288.679688 215.550781 C 288.679688 196.183594 283.265625 177.660156 273.203125 161.601562 L 317.875 129.0625 C 323.152344 137.089844 327.726562 145.613281 331.523438 154.558594 C 339.683594 173.855469 343.835938 194.421875 343.835938 215.480469 L 288.679688 215.480469 Z M 288.679688 215.550781 "/><path style=" stroke:none;fill-rule:nonzero;fill:#e33e31;fill-opacity:1;" d="M 338.910156 210.691406 C 338.347656 191.957031 334.335938 173.714844 327.089844 156.53125 C 324.136719 149.488281 320.621094 142.65625 316.609375 136.175781 L 279.675781 162.9375 C 287.90625 177.449219 292.691406 193.859375 293.464844 210.691406 Z M 338.910156 210.691406 "/><path style=" stroke:none;fill-rule:nonzero;fill:#c76828;fill-opacity:1;" d="M 268.914062 155.402344 C 265.957031 151.386719 262.652344 147.515625 258.992188 143.921875 C 248.722656 133.640625 236.550781 125.820312 223.394531 120.820312 L 240.421875 68.277344 C 243.09375 69.265625 245.695312 70.25 248.300781 71.378906 C 266.941406 79.265625 283.6875 90.535156 298.039062 104.902344 C 303.664062 110.609375 308.871094 116.59375 313.585938 123.003906 Z M 268.914062 155.402344 "/><path style=" stroke:none;fill-rule:nonzero;fill:#ed7b30;fill-opacity:1;" d="M 306.691406 121.878906 C 302.960938 117.085938 298.882812 112.507812 294.589844 108.285156 C 280.660156 94.339844 264.480469 83.421875 246.398438 75.8125 C 245.414062 75.390625 244.429688 75.039062 243.445312 74.617188 L 229.375 118.003906 C 241.6875 123.285156 252.800781 130.890625 262.441406 140.472656 C 265.042969 143.078125 267.503906 145.824219 269.828125 148.710938 Z M 306.691406 121.878906 "/><path style=" stroke:none;fill-rule:nonzero;fill:#cca138;fill-opacity:1;" d="M 216.21875 118.355469 C 207.003906 115.609375 197.296875 114.199219 187.445312 114.199219 C 177.597656 114.199219 167.890625 115.609375 158.675781 118.355469 L 141.648438 65.8125 C 156.421875 61.234375 171.828125 58.980469 187.515625 58.980469 C 203.207031 58.980469 218.613281 61.304688 233.386719 65.8125 Z M 216.21875 118.355469 "/><path style=" stroke:none;fill-rule:nonzero;fill:#f5c143;fill-opacity:1;" d="M 227.125 69.617188 C 214.25 66.09375 200.953125 64.332031 187.445312 64.332031 C 173.941406 64.332031 160.644531 66.09375 147.769531 69.617188 L 161.839844 112.933594 C 170.210938 110.890625 178.792969 109.832031 187.445312 109.832031 C 196.101562 109.832031 204.683594 110.890625 213.054688 112.933594 Z M 227.125 69.617188 "/><path style=" stroke:none;fill-rule:nonzero;fill:#a6b339;fill-opacity:1;" d="M 151.5 120.75 C 138.273438 125.75 126.171875 133.570312 115.902344 143.851562 C 112.3125 147.445312 109.007812 151.316406 105.980469 155.332031 L 61.378906 122.863281 C 66.09375 116.453125 71.230469 110.46875 76.925781 104.761719 C 91.277344 90.394531 108.023438 79.125 126.664062 71.234375 C 129.269531 70.109375 131.871094 69.125 134.542969 68.136719 Z M 151.5 120.75 "/><path style=" stroke:none;fill-rule:nonzero;fill:#ccdc46;fill-opacity:1;" d="M 104.996094 148.640625 C 107.320312 145.753906 109.78125 143.007812 112.382812 140.402344 C 122.023438 130.75 133.136719 123.214844 145.449219 117.933594 L 131.378906 74.546875 C 130.394531 74.96875 129.410156 75.320312 128.421875 75.742188 C 110.34375 83.421875 94.164062 94.339844 80.234375 108.214844 C 75.941406 112.507812 71.863281 117.085938 68.132812 121.804688 Z M 104.996094 148.640625 "/><path style=" stroke:none;fill-rule:nonzero;fill:#e6e6e6;fill-opacity:1;" d="M 95.976562 235.050781 L 21.335938 235.050781 L 21.335938 225.332031 L 95.976562 225.332031 Z M 95.976562 235.050781 "/><path style=" stroke:none;fill-rule:nonzero;fill:#e6e6e6;fill-opacity:1;" d="M 353.558594 235.050781 L 278.917969 235.050781 L 278.917969 225.332031 L 353.558594 225.332031 Z M 353.558594 235.050781 "/><g clip-rule="nonzero" clip-path="url(#5f12079c46)"><path style=" stroke:none;fill-rule:nonzero;fill:#cccccc;fill-opacity:1;" d="M 11.570312 223.863281 L 363.320312 223.863281 L 363.320312 277.179688 L 11.570312 277.179688 Z M 11.570312 223.863281 "/></g><g clip-rule="nonzero" clip-path="url(#5afb216693)"><path style=" stroke:none;fill-rule:nonzero;fill:#8ac245;fill-opacity:1;" d="M 11.570312 231.609375 L 363.320312 231.609375 L 363.320312 269.292969 L 11.570312 269.292969 Z M 11.570312 231.609375 "/></g><path style=" stroke:none;fill-rule:nonzero;fill:#cccccc;fill-opacity:1;" d="M 217.699219 223.863281 C 217.699219 240.625 204.121094 254.148438 187.445312 254.148438 C 170.703125 254.148438 157.195312 240.554688 157.195312 223.863281 Z M 217.699219 223.863281 "/><path style=" stroke:none;fill-rule:nonzero;fill:#404040;fill-opacity:1;" d="M 176.964844 205.199219 L 118.152344 196.957031 C 116.464844 196.746094 115.691406 198.929688 117.097656 199.84375 L 167.46875 231.398438 C 169.578125 237.035156 174.082031 241.753906 180.128906 243.9375 C 191.246094 247.949219 203.488281 242.246094 207.496094 231.1875 C 211.507812 220.058594 205.808594 207.804688 194.761719 203.789062 C 188.644531 201.464844 182.242188 202.242188 176.964844 205.199219 Z M 176.964844 205.199219 "/><path style=" stroke:none;fill-rule:nonzero;fill:#1a1a1a;fill-opacity:1;" d="M 176.964844 205.199219 L 118.152344 196.957031 C 117.308594 196.816406 116.675781 197.308594 116.464844 197.945312 L 207.496094 231.117188 C 211.507812 219.988281 205.808594 207.734375 194.761719 203.71875 C 188.644531 201.464844 182.242188 202.242188 176.964844 205.199219 Z M 176.964844 205.199219 "/><g clip-rule="nonzero" clip-path="url(#1b3844cd19)"><g clip-rule="nonzero" clip-path="url(#25f59e2a08)"><path style=" stroke:none;fill-rule:nonzero;fill:url(#c8ac472680);" d="M 157.261719 237.867188 L 201.511719 253.992188 L 217.632812 209.648438 L 173.382812 193.523438 Z M 157.261719 237.867188 "/></g></g><g clip-rule="nonzero" clip-path="url(#2bde63b0fd)"><path style=" stroke:none;fill-rule:nonzero;fill:#8ac245;fill-opacity:1;" d="M 11.570312 254.148438 L 11.570312 308.664062 C 11.570312 323.59375 23.671875 335.710938 38.585938 335.710938 L 336.308594 335.710938 C 351.222656 335.710938 363.320312 323.59375 363.320312 308.664062 L 363.320312 254.148438 Z M 11.570312 254.148438 "/></g><path style=" stroke:none;fill-rule:nonzero;fill:#ffffff;fill-opacity:1;" d="M 54.835938 270.699219 C 53.921875 269.785156 52.726562 269.011719 51.460938 268.375 C 50.125 267.8125 48.71875 267.53125 47.167969 267.53125 C 45.339844 267.53125 43.722656 267.882812 42.386719 268.515625 C 41.046875 269.152344 39.921875 270.066406 39.007812 271.125 C 38.09375 272.179688 37.390625 273.519531 36.96875 274.996094 C 36.546875 276.476562 36.265625 278.027344 36.265625 279.644531 C 36.265625 282.320312 36.757812 284.644531 37.671875 286.476562 C 38.585938 288.378906 40.484375 289.859375 43.160156 290.984375 L 47.378906 292.746094 C 48.082031 293.027344 48.648438 293.308594 49.070312 293.589844 C 49.421875 293.800781 49.703125 294.085938 49.914062 294.367188 C 50.125 294.71875 50.195312 295.140625 50.265625 295.773438 C 50.335938 296.480469 50.40625 297.324219 50.40625 298.378906 C 50.40625 299.296875 50.40625 300.140625 50.335938 300.84375 C 50.265625 301.480469 50.125 302.042969 49.914062 302.464844 C 49.703125 302.886719 49.351562 303.171875 48.929688 303.453125 C 48.503906 303.664062 47.800781 303.804688 46.886719 303.804688 C 45.621094 303.804688 44.777344 303.453125 44.285156 302.816406 C 43.722656 302.042969 43.441406 301.269531 43.441406 300.28125 L 43.441406 297.675781 L 35.984375 297.675781 L 35.984375 300.632812 C 35.984375 302.113281 36.265625 303.523438 36.828125 304.789062 C 37.390625 306.058594 38.164062 307.183594 39.078125 308.101562 C 40.0625 309.085938 41.1875 309.789062 42.527344 310.355469 C 43.863281 310.917969 45.269531 311.128906 46.816406 311.128906 C 48.789062 311.128906 50.546875 310.777344 51.953125 310.144531 C 53.359375 309.507812 54.554688 308.523438 55.398438 307.394531 C 56.246094 306.269531 56.808594 304.929688 57.230469 303.3125 C 57.582031 301.761719 57.792969 300.070312 57.792969 298.308594 C 57.792969 296.761719 57.722656 295.421875 57.582031 294.15625 C 57.441406 292.886719 57.089844 291.761719 56.667969 290.773438 C 56.175781 289.789062 55.46875 288.941406 54.554688 288.167969 C 53.710938 287.464844 52.515625 286.828125 51.179688 286.265625 L 46.675781 284.433594 C 45.972656 284.152344 45.410156 283.871094 44.988281 283.589844 C 44.636719 283.378906 44.355469 283.097656 44.214844 282.746094 C 44.003906 282.390625 43.933594 282.039062 43.863281 281.546875 C 43.792969 281.054688 43.792969 280.351562 43.792969 279.574219 C 43.792969 278.941406 43.863281 278.308594 43.933594 277.671875 C 44.003906 277.109375 44.214844 276.617188 44.496094 276.195312 C 44.777344 275.84375 45.058594 275.488281 45.480469 275.277344 C 45.832031 275.066406 46.394531 274.925781 47.097656 274.925781 C 48.363281 274.925781 49.210938 275.277344 49.703125 276.054688 C 50.265625 276.898438 50.546875 277.957031 50.546875 279.152344 L 50.546875 281.195312 L 57.933594 281.195312 L 57.933594 277.53125 C 57.722656 275.066406 56.808594 272.742188 54.835938 270.699219 Z M 54.835938 270.699219 "/><path style=" stroke:none;fill-rule:nonzero;fill:#ffffff;fill-opacity:1;" d="M 62.082031 274.925781 L 68.90625 274.925781 L 68.90625 310.707031 L 76.292969 310.707031 L 76.292969 274.925781 L 83.117188 274.925781 L 83.117188 267.882812 L 62.082031 267.882812 Z M 62.082031 274.925781 "/><path style=" stroke:none;fill-rule:nonzero;fill:#ffffff;fill-opacity:1;" d="M 108.867188 287.253906 C 109.640625 285.492188 110.0625 283.308594 110.0625 280.773438 C 110.0625 276.546875 109.148438 273.378906 107.25 271.195312 C 105.347656 269.011719 102.535156 267.882812 98.875 267.882812 L 88.605469 267.882812 L 88.605469 310.707031 L 95.992188 310.707031 L 95.992188 293.027344 L 98.242188 293.027344 L 103.730469 310.707031 L 111.539062 310.707031 L 104.996094 291.40625 C 106.824219 290.351562 108.09375 288.941406 108.867188 287.253906 Z M 95.992188 274.925781 L 98.3125 274.925781 C 100.074219 274.925781 101.269531 275.347656 101.902344 276.195312 C 102.183594 276.6875 102.394531 277.25 102.464844 277.957031 C 102.605469 278.730469 102.605469 279.574219 102.605469 280.632812 C 102.605469 281.617188 102.535156 282.535156 102.464844 283.308594 C 102.394531 284.011719 102.183594 284.574219 101.902344 285.070312 C 101.621094 285.492188 101.269531 285.773438 100.777344 286.054688 C 100.285156 286.265625 99.507812 286.40625 98.59375 286.40625 L 95.992188 286.40625 Z M 95.992188 274.925781 "/><path style=" stroke:none;fill-rule:nonzero;fill:#ffffff;fill-opacity:1;" d="M 117.730469 310.707031 L 136.796875 310.707031 L 136.796875 303.3125 L 125.046875 303.3125 L 125.046875 292.675781 L 135.246094 292.675781 L 135.246094 285.632812 L 125.046875 285.632812 L 125.046875 274.925781 L 136.796875 274.925781 L 136.796875 267.882812 L 117.730469 267.882812 Z M 117.730469 310.707031 "/><path style=" stroke:none;fill-rule:nonzero;fill:#ffffff;fill-opacity:1;" d="M 161.207031 270.699219 C 160.292969 269.785156 159.097656 269.011719 157.828125 268.375 C 156.492188 267.8125 155.085938 267.53125 153.539062 267.53125 C 151.710938 267.53125 150.089844 267.882812 148.753906 268.515625 C 147.417969 269.152344 146.292969 270.066406 145.378906 271.125 C 144.464844 272.179688 143.757812 273.519531 143.335938 274.996094 C 142.914062 276.476562 142.632812 278.027344 142.632812 279.644531 C 142.632812 282.320312 143.125 284.644531 144.042969 286.476562 C 144.957031 288.378906 146.855469 289.859375 149.527344 290.984375 L 153.75 292.746094 C 154.453125 293.027344 155.015625 293.308594 155.4375 293.589844 C 155.789062 293.800781 156.070312 294.085938 156.28125 294.367188 C 156.492188 294.71875 156.5625 295.140625 156.632812 295.773438 C 156.703125 296.480469 156.773438 297.324219 156.773438 298.378906 C 156.773438 299.296875 156.773438 300.140625 156.703125 300.84375 C 156.632812 301.480469 156.492188 302.042969 156.210938 302.464844 C 156 302.886719 155.648438 303.171875 155.226562 303.453125 C 154.804688 303.664062 154.101562 303.804688 153.1875 303.804688 C 151.921875 303.804688 151.074219 303.453125 150.582031 302.816406 C 150.019531 302.042969 149.738281 301.269531 149.738281 300.28125 L 149.738281 297.675781 L 142.351562 297.675781 L 142.351562 300.632812 C 142.351562 302.113281 142.632812 303.523438 143.195312 304.789062 C 143.757812 306.058594 144.535156 307.183594 145.449219 308.101562 C 146.433594 309.085938 147.558594 309.789062 148.894531 310.355469 C 150.230469 310.917969 151.640625 311.128906 153.1875 311.128906 C 155.15625 311.128906 156.914062 310.777344 158.320312 310.144531 C 159.730469 309.507812 160.925781 308.523438 161.769531 307.394531 C 162.613281 306.269531 163.175781 304.929688 163.597656 303.3125 C 163.949219 301.761719 164.160156 300.070312 164.160156 298.308594 C 164.160156 296.761719 164.089844 295.421875 163.949219 294.15625 C 163.808594 292.886719 163.457031 291.761719 163.035156 290.773438 C 162.542969 289.789062 161.839844 288.941406 160.925781 288.167969 C 160.082031 287.464844 158.886719 286.828125 157.546875 286.265625 L 153.046875 284.433594 C 152.34375 284.152344 151.78125 283.871094 151.359375 283.589844 C 151.003906 283.378906 150.722656 283.097656 150.582031 282.746094 C 150.371094 282.390625 150.300781 282.039062 150.230469 281.546875 C 150.160156 281.054688 150.160156 280.351562 150.160156 279.574219 C 150.160156 278.941406 150.230469 278.308594 150.300781 277.671875 C 150.371094 277.109375 150.582031 276.617188 150.863281 276.195312 C 151.144531 275.84375 151.429688 275.488281 151.851562 275.277344 C 152.203125 275.066406 152.765625 274.925781 153.46875 274.925781 C 154.734375 274.925781 155.578125 275.277344 156.070312 276.054688 C 156.632812 276.898438 156.914062 277.957031 156.914062 279.152344 L 156.914062 281.195312 L 164.300781 281.195312 L 164.300781 277.53125 C 164.089844 275.066406 163.105469 272.742188 161.207031 270.699219 Z M 161.207031 270.699219 "/><path style=" stroke:none;fill-rule:nonzero;fill:#ffffff;fill-opacity:1;" d="M 189.136719 270.699219 C 188.222656 269.785156 187.023438 269.011719 185.757812 268.375 C 184.421875 267.8125 183.015625 267.53125 181.46875 267.53125 C 179.636719 267.53125 178.019531 267.882812 176.683594 268.515625 C 175.347656 269.152344 174.222656 270.066406 173.308594 271.125 C 172.390625 272.179688 171.6875 273.519531 171.265625 274.996094 C 170.84375 276.476562 170.5625 278.027344 170.5625 279.644531 C 170.5625 282.320312 171.054688 284.644531 171.96875 286.476562 C 172.882812 288.378906 174.785156 289.859375 177.457031 290.984375 L 181.679688 292.746094 C 182.382812 293.027344 182.945312 293.308594 183.367188 293.589844 C 183.71875 293.800781 184 294.085938 184.210938 294.367188 C 184.421875 294.71875 184.492188 295.140625 184.5625 295.773438 C 184.632812 296.480469 184.703125 297.324219 184.703125 298.378906 C 184.703125 299.296875 184.703125 300.140625 184.632812 300.84375 C 184.5625 301.480469 184.421875 302.042969 184.210938 302.464844 C 184 302.886719 183.648438 303.171875 183.226562 303.453125 C 182.804688 303.664062 182.101562 303.804688 181.1875 303.804688 C 179.917969 303.804688 179.074219 303.453125 178.582031 302.816406 C 178.019531 302.042969 177.738281 301.269531 177.738281 300.28125 L 177.738281 297.675781 L 170.351562 297.675781 L 170.351562 300.632812 C 170.351562 302.113281 170.632812 303.523438 171.195312 304.789062 C 171.757812 306.058594 172.53125 307.183594 173.449219 308.101562 C 174.433594 309.085938 175.558594 309.789062 176.894531 310.355469 C 178.230469 310.917969 179.636719 311.128906 181.1875 311.128906 C 183.15625 311.128906 184.914062 310.777344 186.320312 310.144531 C 187.726562 309.507812 188.925781 308.523438 189.769531 307.394531 C 190.613281 306.269531 191.175781 304.929688 191.597656 303.3125 C 191.949219 301.761719 192.160156 300.070312 192.160156 298.308594 C 192.160156 296.761719 192.089844 295.421875 191.949219 294.15625 C 191.808594 292.886719 191.457031 291.761719 191.035156 290.773438 C 190.542969 289.789062 189.839844 288.941406 188.925781 288.167969 C 188.082031 287.464844 186.882812 286.828125 185.546875 286.265625 L 181.046875 284.433594 C 180.339844 284.152344 179.777344 283.871094 179.355469 283.589844 C 179.003906 283.378906 178.722656 283.097656 178.582031 282.746094 C 178.371094 282.390625 178.300781 282.039062 178.230469 281.546875 C 178.160156 281.054688 178.160156 280.351562 178.160156 279.574219 C 178.160156 278.941406 178.230469 278.308594 178.300781 277.671875 C 178.371094 277.109375 178.582031 276.617188 178.863281 276.195312 C 179.144531 275.84375 179.425781 275.488281 179.847656 275.277344 C 180.199219 275.066406 180.765625 274.925781 181.46875 274.925781 C 182.734375 274.925781 183.578125 275.277344 184.070312 276.054688 C 184.632812 276.898438 184.914062 277.957031 184.914062 279.152344 L 184.914062 281.195312 L 192.300781 281.195312 L 192.300781 277.53125 C 192.019531 275.066406 191.035156 272.742188 189.136719 270.699219 Z M 189.136719 270.699219 "/><path style=" stroke:none;fill-rule:nonzero;fill:#ffffff;fill-opacity:1;" d="M 221.777344 267.882812 L 214.460938 267.882812 L 214.460938 310.707031 L 233.527344 310.707031 L 233.527344 303.3125 L 221.777344 303.3125 Z M 221.777344 267.882812 "/><path style=" stroke:none;fill-rule:nonzero;fill:#ffffff;fill-opacity:1;" d="M 240.28125 310.707031 L 259.34375 310.707031 L 259.34375 303.3125 L 247.597656 303.3125 L 247.597656 292.675781 L 257.796875 292.675781 L 257.796875 285.632812 L 247.597656 285.632812 L 247.597656 274.925781 L 259.34375 274.925781 L 259.34375 267.882812 L 240.28125 267.882812 Z M 240.28125 310.707031 "/><path style=" stroke:none;fill-rule:nonzero;fill:#ffffff;fill-opacity:1;" d="M 275.808594 293.378906 L 271.65625 267.882812 L 263.847656 267.882812 L 272.570312 310.707031 L 278.972656 310.707031 L 287.765625 267.882812 L 279.957031 267.882812 Z M 275.808594 293.378906 "/><path style=" stroke:none;fill-rule:nonzero;fill:#ffffff;fill-opacity:1;" d="M 294.027344 310.707031 L 313.09375 310.707031 L 313.09375 303.3125 L 301.414062 303.3125 L 301.414062 292.675781 L 311.613281 292.675781 L 311.613281 285.632812 L 301.414062 285.632812 L 301.414062 274.925781 L 313.09375 274.925781 L 313.09375 267.882812 L 294.027344 267.882812 Z M 294.027344 310.707031 "/><path style=" stroke:none;fill-rule:nonzero;fill:#ffffff;fill-opacity:1;" d="M 327.164062 303.3125 L 327.164062 267.882812 L 319.847656 267.882812 L 319.847656 310.707031 L 338.910156 310.707031 L 338.910156 303.3125 Z M 327.164062 303.3125 "/></g></svg>